<?xml version="1.0" standalone="no"?>
<!DOCTYPE svg PUBLIC "-//W3C//DTD SVG 20010904//EN"
 "http://www.w3.org/TR/2001/REC-SVG-20010904/DTD/svg10.dtd">
<svg version="1.0" xmlns="http://www.w3.org/2000/svg"
 width="1300.000000pt" height="1161.000000pt" viewBox="0 0 1300.000000 1161.000000"
 preserveAspectRatio="xMidYMid meet">

<g transform="translate(0.000000,1161.000000) scale(0.100000,-0.100000)"
fill="#000000" stroke="none">
<path d="M4749 11581 c-24 -16 -60 -46 -78 -65 -27 -28 -43 -36 -70 -36 -33 0
-120 -22 -318 -79 -88 -26 -83 -25 -83 0 0 73 -103 101 -187 49 -33 -20 -93
-104 -93 -131 0 -13 -33 -28 -137 -64 -76 -25 -196 -74 -268 -107 -194 -90
-363 -163 -423 -182 -47 -16 -56 -16 -85 -3 -99 45 -156 42 -198 -11 -18 -23
-20 -36 -15 -82 l5 -55 -61 -50 c-34 -28 -81 -67 -106 -88 -33 -28 -51 -37
-66 -32 -42 12 -125 17 -161 11 -48 -9 -85 -46 -85 -85 0 -34 19 -81 32 -81 5
0 6 -5 2 -11 -10 -16 -292 -199 -307 -199 -7 0 -30 9 -52 20 -58 30 -88 26
-130 -15 -32 -32 -35 -41 -35 -91 0 -30 5 -64 11 -75 16 -30 -23 -58 -81 -59
-52 0 -106 -25 -134 -63 -14 -19 -19 -40 -17 -78 1 -49 -1 -55 -40 -95 -37
-38 -43 -41 -68 -31 -57 21 -147 -17 -177 -75 -12 -22 -17 -58 -18 -110 -1
-76 -2 -78 -42 -120 -23 -24 -67 -77 -99 -118 -32 -41 -77 -95 -101 -120 -24
-25 -86 -110 -138 -190 -53 -80 -118 -177 -145 -216 -94 -132 -128 -226 -203
-559 -34 -151 -42 -207 -41 -275 4 -201 99 -405 235 -506 70 -51 131 -75 256
-100 l93 -18 -48 -25 c-45 -23 -58 -25 -223 -27 -162 -2 -179 -4 -231 -27 -30
-13 -71 -38 -91 -56 -74 -65 -100 -176 -55 -242 50 -75 110 -61 193 43 37 45
71 76 102 92 58 29 151 60 159 53 3 -3 -11 -25 -30 -49 -31 -38 -80 -133 -139
-268 -28 -63 -64 -184 -78 -255 -21 -113 -16 -105 -61 -105 -44 0 -152 -39
-209 -76 -105 -67 -230 -257 -230 -349 0 -80 36 -125 100 -125 72 0 149 76
216 213 35 73 53 97 86 119 75 51 75 50 83 -134 3 -90 5 -203 3 -251 l-3 -88
-90 -2 c-75 -2 -98 -6 -135 -27 -57 -32 -97 -103 -106 -187 -6 -57 -5 -61 27
-98 71 -81 165 -84 330 -11 14 6 19 -3 29 -46 22 -92 81 -237 172 -420 48 -97
88 -180 88 -185 0 -4 9 -26 21 -47 11 -21 19 -39 17 -40 -2 -1 -21 -16 -43
-33 -22 -16 -78 -48 -125 -70 -101 -48 -149 -94 -157 -150 -8 -58 23 -111 98
-167 50 -38 68 -46 103 -46 39 0 48 5 98 56 31 31 74 91 97 135 23 43 46 79
50 79 5 0 23 -27 40 -60 38 -71 39 -69 -58 -136 -36 -25 -94 -67 -128 -94 -38
-29 -83 -54 -116 -64 -69 -20 -149 -73 -161 -107 -13 -38 0 -77 37 -110 83
-76 190 -47 269 73 24 36 55 67 90 88 29 18 82 61 119 96 l65 64 23 -40 c65
-116 166 -254 242 -330 94 -94 424 -434 534 -551 109 -115 303 -246 519 -349
78 -37 179 -91 225 -118 46 -28 123 -67 170 -88 47 -20 129 -56 181 -79 124
-54 197 -72 350 -85 69 -5 187 -15 263 -21 108 -10 145 -10 175 0 30 10 59 10
137 1 170 -20 418 10 696 85 112 30 236 59 274 65 39 6 89 13 113 16 45 7 48
4 31 -28 -23 -43 12 -94 86 -129 145 -67 348 71 389 263 4 17 13 28 23 28 17
0 449 183 543 230 30 15 88 53 128 84 40 31 76 56 81 56 15 0 126 77 177 123
86 78 246 347 310 520 l29 79 96 68 c90 65 101 76 156 167 33 54 81 132 107
173 51 83 65 135 44 162 -8 10 -44 23 -88 32 -78 16 -197 70 -291 133 -30 20
-90 54 -134 75 -91 45 -202 125 -290 209 -33 31 -85 77 -115 101 -36 29 -57
54 -61 73 -3 17 -16 55 -28 85 -45 118 -16 273 93 488 22 43 162 260 186 289
5 7 10 17 10 24 0 6 18 45 39 87 22 43 46 93 54 112 8 19 24 45 36 57 11 12
21 26 21 32 0 22 81 183 132 261 56 86 173 231 212 261 56 44 80 49 198 43 62
-3 132 -7 156 -10 l42 -5 0 -67 c0 -95 -19 -148 -108 -295 -57 -96 -99 -153
-161 -216 -167 -172 -210 -242 -218 -357 -6 -71 -5 -73 25 -103 34 -35 50 -38
96 -16 24 12 49 44 101 133 38 64 87 140 110 167 23 28 52 66 65 85 13 19 43
56 66 81 69 75 109 177 159 404 18 80 43 145 56 145 15 0 19 -52 9 -119 -10
-73 -7 -94 18 -123 22 -27 60 -22 93 11 28 28 29 33 29 119 0 124 7 151 39
159 14 3 52 19 83 34 32 17 102 37 165 49 59 12 127 25 150 30 69 16 72 15
106 -57 27 -56 32 -80 32 -138 0 -61 -5 -81 -38 -148 -42 -88 -55 -153 -37
-186 24 -46 126 -66 193 -38 93 39 140 242 83 362 -21 46 -84 133 -126 175
-25 25 -37 82 -19 92 8 5 41 24 74 44 l59 35 37 -20 c49 -28 81 -26 140 5 43
24 53 26 89 16 73 -18 140 16 140 71 0 16 -16 70 -36 120 -34 85 -36 92 -21
116 18 30 61 38 110 21 18 -6 87 -15 154 -20 219 -17 313 18 343 126 12 40 11
48 -14 98 -39 79 -74 81 -182 14 -93 -59 -192 -67 -275 -22 -28 16 -59 39 -67
53 -26 40 5 55 144 71 193 21 239 46 299 158 24 45 44 67 100 105 119 82 146
107 172 164 21 45 24 63 18 101 -11 76 -39 112 -85 112 -22 0 -42 -15 -94 -72
-64 -70 -85 -83 -47 -30 27 39 60 120 70 175 13 71 -8 147 -58 215 -23 29 -30
32 -79 32 -65 0 -86 -10 -106 -51 -20 -40 -20 -84 0 -179 27 -128 8 -206 -73
-303 -21 -25 -58 -68 -82 -96 -24 -29 -45 -51 -46 -49 -2 2 4 35 13 73 11 51
15 118 15 245 -1 222 -23 351 -99 573 -30 89 -66 205 -79 257 -44 172 -136
364 -244 510 -30 41 -107 128 -171 192 l-115 117 0 183 c0 172 -2 186 -24 231
-64 130 -232 172 -392 98 -36 -16 -86 -46 -112 -66 -32 -25 -52 -34 -60 -27
-7 5 -52 41 -100 80 -49 39 -114 82 -145 97 -32 15 -81 45 -109 67 -49 37 -53
44 -53 82 0 44 -36 132 -63 154 -48 40 -144 31 -216 -20 -41 -29 -46 -30 -80
-19 -106 37 -475 179 -538 207 -37 16 -43 23 -43 50 0 59 -105 144 -178 144
-43 0 -89 -24 -97 -51 -6 -17 -12 -19 -33 -14 -15 4 -72 15 -127 25 -108 20
-535 99 -573 106 -12 3 -28 16 -34 30 -7 14 -39 46 -72 71 -57 42 -64 45 -111
41 -64 -5 -124 -35 -150 -73 l-20 -30 -109 8 c-109 8 -110 8 -155 49 -78 68
-131 76 -202 29z m120 -50 l24 -18 -34 -6 c-78 -14 -129 -19 -129 -13 0 11 75
56 95 56 11 0 31 -9 44 -19z m579 -27 c27 -26 32 -34 17 -30 -11 2 -55 7 -97
11 -43 4 -78 10 -78 15 0 11 65 35 108 39 7 0 29 -15 50 -35z m-1302 -99 c11
-44 -5 -52 -143 -81 -35 -7 -28 14 21 62 35 36 50 44 79 44 31 0 38 -4 43 -25z
m695 -16 c63 -1 175 -8 249 -15 74 -7 221 -20 325 -29 175 -16 385 -50 478
-77 29 -9 36 -15 31 -27 -4 -9 -9 -38 -11 -66 -4 -43 -2 -54 21 -77 21 -24 33
-28 81 -28 63 0 116 28 150 80 11 16 24 30 28 30 29 0 341 -86 384 -106 30
-13 58 -24 64 -24 6 0 7 -5 3 -12 -4 -6 -3 -8 3 -5 6 4 116 -29 244 -72 310
-105 353 -122 337 -134 -9 -6 -8 -7 5 -3 10 3 50 -11 95 -34 42 -21 131 -62
197 -91 131 -58 171 -82 256 -155 31 -27 72 -61 90 -75 l34 -26 -45 -28 c-51
-32 -183 -145 -176 -152 8 -8 141 74 195 121 13 12 20 14 15 6 -51 -84 -79
-120 -90 -116 -9 3 -11 -1 -7 -11 5 -12 3 -14 -8 -8 -8 4 -11 4 -6 0 4 -5 0
-19 -9 -33 -35 -53 -2 -28 81 62 48 53 122 124 164 158 42 35 85 71 95 80 11
10 35 21 54 24 75 14 151 -34 205 -131 27 -48 61 -179 55 -215 -3 -19 -7 -18
-63 23 -33 24 -79 55 -103 69 l-42 25 29 37 30 38 14 -34 c8 -18 10 -34 6 -36
-5 -2 -3 -9 4 -17 20 -22 27 -7 27 61 0 124 -33 135 -125 42 -76 -78 -141
-164 -156 -206 -6 -18 -15 -32 -21 -32 -11 0 -47 -41 -48 -54 0 -17 -93 -145
-101 -140 -5 3 -6 -2 -3 -10 4 -10 1 -16 -7 -16 -7 0 -9 -3 -6 -6 9 -10 -86
-130 -147 -186 -74 -69 -137 -91 -254 -86 -94 3 -110 -2 -69 -23 12 -6 23 -13
25 -14 1 -1 -12 -33 -29 -71 -26 -56 -32 -83 -33 -144 -1 -64 3 -83 27 -128
15 -29 36 -61 46 -71 10 -10 37 -46 59 -78 51 -74 89 -108 168 -145 161 -75
378 -59 608 46 68 31 146 88 146 107 0 4 -16 -3 -36 -16 -42 -28 -125 -56
-247 -82 -59 -13 -126 -18 -242 -18 -173 0 -208 8 -308 73 -48 32 -41 39 19
18 82 -28 197 -21 322 18 59 19 134 39 167 45 88 16 163 58 206 115 36 47 105
223 97 247 -2 7 -23 -26 -47 -72 -50 -101 -108 -172 -162 -199 -21 -11 -40
-20 -43 -20 -3 0 17 29 43 64 29 38 57 90 69 128 26 82 36 229 18 272 -21 48
-77 104 -140 140 l-58 33 28 18 c45 29 73 65 85 107 5 22 13 46 16 54 12 33
-16 10 -45 -35 -17 -29 -49 -61 -74 -76 -24 -15 -59 -38 -79 -51 -19 -13 -38
-24 -42 -24 -4 0 16 36 44 80 28 44 55 80 61 80 5 0 7 4 3 9 -3 6 15 42 41 81
35 54 50 70 62 65 10 -3 61 -34 116 -68 76 -47 120 -85 193 -164 59 -63 92
-107 87 -114 -4 -8 -3 -9 4 -5 18 11 127 -132 252 -328 74 -117 76 -131 7 -61
-58 58 -173 142 -183 132 -5 -4 52 -115 71 -137 7 -8 25 -39 39 -68 48 -96
188 -307 287 -434 47 -60 78 -142 84 -222 l5 -61 -19 51 c-23 62 -42 100 -96
189 -92 153 -204 294 -129 164 120 -210 193 -391 229 -569 23 -114 24 -173 1
-245 -15 -47 -28 -68 -63 -97 -38 -33 -51 -38 -93 -38 -52 0 -80 7 -80 21 0 4
11 25 25 45 30 44 32 97 7 139 -18 29 -133 106 -237 158 -27 13 -127 52 -222
85 -95 34 -216 79 -270 101 -54 21 -143 56 -198 77 -55 20 -156 64 -225 97
-174 82 -316 143 -445 189 l-110 40 -235 8 c-129 5 -255 8 -280 8 -96 -2 84
-16 225 -17 243 -2 297 -12 510 -98 70 -28 48 -18 293 -133 107 -49 196 -90
198 -90 3 0 89 -33 192 -74 103 -40 257 -97 342 -126 85 -29 202 -75 260 -103
l105 -51 -45 -3 c-110 -7 -214 -26 -275 -48 -36 -14 -80 -25 -98 -25 l-32 0
45 24 c24 13 51 34 60 47 l15 23 -30 -21 c-32 -23 -135 -67 -135 -57 0 3 15
24 34 46 19 22 40 54 46 71 9 28 6 26 -37 -21 -70 -78 -95 -78 -363 -7 l-85
23 40 7 c73 14 72 25 -1 19 -49 -5 -94 -2 -140 9 -38 8 -112 23 -165 33 l-96
17 41 21 c22 12 48 35 57 51 20 37 33 115 19 115 -5 0 -10 -8 -10 -17 0 -9 -9
-36 -20 -59 -16 -32 -31 -46 -63 -59 -40 -16 -47 -16 -160 6 -119 23 -183 48
-125 49 15 0 53 9 84 21 58 22 74 42 89 115 5 24 1 21 -19 -17 -19 -36 -33
-48 -63 -57 -48 -14 -272 -36 -281 -28 -3 4 3 9 14 12 10 3 30 21 44 41 19 28
25 50 27 107 2 70 -5 65 -21 -16 -4 -14 -18 -40 -32 -57 l-26 -31 -201 0
c-162 1 -199 3 -186 13 37 28 69 90 69 133 0 23 -4 46 -10 49 -6 4 -10 -7 -10
-27 0 -72 -70 -131 -185 -156 -65 -14 -320 -26 -368 -17 l-36 7 24 32 c31 41
55 98 55 132 0 22 -6 15 -31 -35 -17 -34 -46 -74 -65 -89 -34 -27 -36 -27
-183 -27 l-148 0 18 24 c16 20 19 41 19 134 0 61 -3 107 -7 104 -4 -4 -12 -51
-19 -104 -14 -111 -18 -116 -122 -158 -50 -20 -80 -25 -155 -26 -50 0 -122 -3
-159 -7 l-66 -8 5 34 c17 99 -82 129 -216 64 -50 -24 -67 -26 -166 -27 -116 0
-173 14 -287 71 -103 52 -181 41 -223 -30 -14 -24 -32 -66 -40 -94 -12 -38
-26 -60 -58 -86 -88 -72 -150 -77 -233 -17 -31 22 -62 41 -69 41 -6 0 -35 32
-65 70 -72 95 -86 101 -21 9 l52 -74 -26 -11 c-15 -6 -31 -17 -36 -25 -12 -20
-11 -86 2 -95 21 -12 -8 -26 -76 -34 -51 -6 -80 -5 -124 8 -41 11 -88 15 -176
12 -305 -9 -378 0 -457 54 -19 13 -57 36 -84 51 l-49 28 55 -51 c30 -28 50
-51 43 -52 -22 0 -72 -51 -78 -79 -9 -44 -70 -109 -113 -121 -61 -17 -116 -12
-153 13 -51 34 -56 61 -30 153 26 91 20 129 -24 140 -36 9 -72 -18 -86 -66
-10 -33 -17 -40 -33 -38 -30 4 -32 68 -5 168 25 93 23 182 -4 224 -15 23 -24
26 -73 26 -30 0 -64 -5 -76 -11 -46 -25 -59 -119 -33 -239 15 -69 19 -150 8
-188 -8 -32 -23 -9 -23 36 0 17 -4 32 -8 32 -8 0 11 -195 22 -220 3 -8 20 -24
37 -35 34 -23 63 -70 55 -91 -7 -19 -182 -20 -205 -1 -9 8 -36 22 -60 31 -26
10 -64 39 -95 71 -49 52 -55 55 -100 55 -41 0 -53 -5 -82 -34 -25 -25 -34 -43
-34 -67 0 -36 36 -121 71 -170 12 -17 19 -32 16 -35 -15 -16 -213 -74 -269
-80 -64 -6 -69 -5 -130 30 -35 19 -74 45 -87 57 -29 24 -37 15 89 90 47 27
130 79 184 114 55 34 173 98 263 141 90 42 162 79 160 81 -2 1 -72 -28 -156
-66 -144 -65 -193 -92 -341 -186 -183 -116 -241 -147 -254 -136 -47 39 -119
32 -207 -19 -76 -46 -165 -35 -230 26 -49 46 -116 28 -149 -40 -26 -54 -25
-100 1 -142 46 -76 108 -84 212 -29 48 25 79 35 112 35 50 0 89 -15 80 -30 -3
-6 0 -8 7 -5 15 6 78 -30 78 -44 0 -14 -40 -36 -100 -56 -66 -21 -90 -40 -90
-72 0 -43 62 -83 110 -70 50 13 8 -37 -52 -62 -55 -23 -63 -36 -16 -26 31 7
29 3 -37 -58 -48 -45 -76 -64 -90 -62 -175 34 -170 32 -261 118 -90 85 -136
159 -164 260 -15 56 -8 254 10 303 7 16 24 76 39 134 31 117 125 369 176 471
52 104 142 244 192 300 42 45 89 105 141 178 69 97 221 263 234 255 5 -3 7 -2
6 3 -6 17 105 153 229 279 133 135 203 200 203 187 0 -5 -16 -36 -34 -71 -50
-91 -28 -84 32 11 51 82 88 122 188 205 32 26 57 40 66 37 9 -4 19 -2 23 4 3
7 0 8 -9 5 -31 -12 -15 4 77 77 124 100 191 148 248 178 26 15 98 60 161 102
62 42 158 104 213 139 55 35 150 96 210 136 61 40 160 95 220 122 289 131 377
168 465 195 52 16 138 43 190 59 388 122 758 216 791 202 3 -2 57 -4 120 -5z
m1657 -100 c17 -16 32 -31 32 -33 0 -2 -29 8 -65 22 -65 26 -76 42 -27 42 16
0 40 -12 60 -31z m-433 -73 l30 -12 -27 -27 c-17 -17 -38 -27 -57 -27 -38 0
-44 10 -30 49 12 35 33 39 84 17z m1369 -252 c18 -17 32 -62 23 -71 -4 -3 -29
4 -56 16 -27 11 -62 26 -78 32 l-28 11 25 13 c34 19 95 19 114 -1z m-4499 -38
l30 -13 -46 -20 c-26 -11 -50 -26 -53 -32 -13 -20 -26 -11 -26 18 0 33 23 61
48 61 9 -1 31 -7 47 -14z m-425 -334 c0 -10 -87 -72 -101 -72 -5 0 -14 11 -21
25 -17 38 4 55 68 55 30 0 54 -4 54 -8z m-537 -354 c2 -7 -18 -32 -44 -56
l-49 -44 0 34 c0 46 24 78 59 78 16 0 31 -6 34 -12z m-253 -243 c0 -4 -16 -22
-35 -42 -25 -26 -35 -31 -35 -19 0 19 43 66 60 66 5 0 10 -2 10 -5z m6325
-166 c63 -16 99 -39 126 -77 21 -32 24 -46 23 -131 -1 -122 -22 -173 -107
-259 -129 -132 -337 -192 -506 -147 -81 21 -160 94 -178 163 -8 32 23 131 58
184 l28 42 83 2 c113 2 162 26 258 125 49 51 90 83 115 92 51 19 53 19 100 6z
m-6620 -159 c-40 -58 -55 -68 -55 -38 0 30 26 67 54 78 32 12 32 4 1 -40z
m8121 -895 c18 -14 18 -14 -8 -15 -15 0 -30 5 -33 10 -5 8 -12 7 -23 -2 -15
-12 -16 -11 -3 5 16 21 41 22 67 2z m-6723 -834 c-77 -71 -204 -218 -200 -230
2 -7 -67 -131 -100 -181 -24 -36 -31 -66 -13 -55 19 11 10 -2 -24 -40 -21 -23
-37 -52 -41 -76 -4 -21 -15 -47 -25 -59 -10 -11 -21 -37 -25 -57 -4 -21 -13
-49 -21 -64 -45 -89 -83 -284 -104 -543 -16 -192 -36 -263 -119 -414 -81 -147
-90 -170 -130 -314 -36 -128 -45 -217 -33 -318 5 -41 8 -76 7 -78 -1 -1 -19
40 -40 92 -41 101 -41 102 -20 276 5 43 4 42 -26 -30 -44 -105 -46 -198 -4
-290 26 -58 29 -76 30 -170 0 -77 -5 -119 -19 -158 -10 -29 -16 -56 -13 -58 9
-10 66 103 81 161 9 32 17 60 20 62 2 2 8 -31 13 -74 8 -62 7 -86 -4 -118 -22
-62 -21 -67 24 -89 23 -12 44 -26 47 -33 3 -7 -9 -3 -27 7 -92 56 -188 1 -252
-145 -15 -33 -32 -71 -38 -85 -6 -14 -22 -37 -36 -52 -28 -32 -61 -35 -114
-13 -64 27 -131 17 -165 -24 -29 -35 -73 -142 -88 -212 -8 -41 -23 -92 -33
-114 -29 -62 -141 -177 -219 -223 -64 -38 -111 -82 -156 -147 -10 -15 -38 -36
-62 -47 -39 -17 -46 -17 -72 -4 -89 46 -68 83 83 142 50 19 87 44 130 84 33
30 86 78 118 104 33 27 74 72 92 100 57 86 78 210 43 254 -21 25 -96 14 -151
-22 -68 -44 -89 -68 -128 -146 -36 -75 -93 -155 -114 -163 -40 -16 -122 37
-145 94 -21 49 10 85 122 143 52 28 120 70 149 92 87 67 89 68 319 120 128 29
255 101 348 196 99 102 143 196 145 308 2 128 -29 190 -97 190 -69 0 -114 -59
-160 -211 -29 -96 -78 -164 -141 -193 -32 -15 -37 -15 -65 -1 -57 29 -34 82
95 215 40 41 75 85 79 97 4 13 0 42 -9 68 -8 26 -12 52 -8 58 21 37 93 112
133 141 54 39 131 142 153 206 9 25 30 81 47 125 64 164 64 159 26 213 -19 26
-44 76 -57 111 -21 58 -22 69 -11 130 17 101 44 151 136 249 141 150 142 152
233 332 33 65 38 86 41 155 7 156 -23 200 -131 196 -103 -4 -168 -50 -275
-193 -40 -55 -126 -220 -165 -320 -36 -92 -146 -186 -201 -172 -20 5 -26 12
-26 33 0 69 101 222 237 359 47 48 110 124 140 169 30 45 61 87 69 94 8 6 14
19 14 28 0 10 13 35 30 57 21 28 30 50 30 79 0 23 9 55 21 75 17 27 23 56 26
135 3 55 6 101 8 103 1 1 28 8 59 14 73 16 147 1 207 -41 68 -48 103 -49 169
-7 30 20 87 70 125 111 l71 75 104 1 c58 1 116 4 130 8 14 4 27 6 30 3 3 -2
-32 -38 -77 -81z m2927 -781 c0 -26 53 -68 103 -80 67 -17 71 -21 79 -91 11
-111 -23 -253 -90 -374 -30 -55 -60 -75 -112 -75 -30 0 -39 6 -54 32 -11 17
-52 66 -93 109 -65 68 -74 82 -85 134 -26 131 63 297 192 354 48 21 60 20 60
-9z m-4423 -42 c-24 -30 -58 -88 -76 -131 -28 -69 -33 -96 -41 -218 -7 -112
-6 -148 5 -179 8 -22 13 -40 12 -41 -1 0 -24 -2 -52 -5 -81 -8 -140 -48 -222
-149 -101 -124 -143 -141 -187 -75 -14 22 -37 47 -50 55 -29 20 -108 24 -114
7 -2 -7 -11 -12 -21 -12 -9 0 -32 -19 -49 -42 -18 -24 -67 -90 -110 -148 -43
-58 -94 -115 -112 -128 -31 -21 -34 -21 -52 -6 -13 12 -18 31 -18 68 0 62 23
108 102 205 48 59 69 75 134 106 103 49 164 55 259 25 49 -15 84 -21 107 -16
45 8 99 66 128 138 21 53 27 59 75 78 84 34 125 88 125 164 0 63 -32 98 -110
120 -68 19 -96 49 -86 90 7 28 93 81 186 115 66 24 88 28 158 30 l54 1 -45
-52z m4015 9 c9 -43 -17 -134 -42 -150 -11 -6 -46 10 -130 63 -63 40 -123 80
-134 90 -18 17 -15 18 80 24 55 4 110 8 124 10 14 2 41 3 60 2 31 -1 35 -4 42
-39z m-411 -22 c49 -25 130 -77 238 -152 87 -61 326 -299 398 -396 36 -50 83
-122 104 -161 l37 -70 -34 -44 c-48 -63 -46 -105 6 -188 22 -35 51 -87 64
-116 44 -98 113 -148 204 -148 l48 0 21 -49 21 -49 -34 -33 c-46 -45 -44 -71
16 -162 67 -104 80 -131 80 -169 0 -63 19 -101 82 -166 76 -77 103 -92 164
-92 51 0 94 -24 299 -168 97 -69 210 -137 375 -227 58 -31 126 -72 151 -91 26
-19 51 -34 55 -34 5 0 16 -5 24 -10 13 -8 13 -11 -1 -22 -67 -54 -312 -236
-389 -290 -52 -36 -122 -90 -155 -119 -67 -59 -75 -62 -280 -134 -82 -29 -195
-72 -250 -95 -82 -34 -253 -80 -302 -80 -7 0 -9 13 -6 39 4 29 0 49 -18 81
-28 50 -63 70 -119 70 -84 0 -130 -51 -130 -143 0 -104 6 -99 -158 -138 -133
-31 -160 -34 -287 -33 -87 1 -195 9 -285 23 -241 36 -478 46 -769 32 -140 -7
-260 -15 -267 -19 -7 -4 137 -7 319 -7 343 -1 434 -7 744 -51 263 -37 357 -33
617 23 l28 6 -16 -30 c-8 -17 -23 -33 -31 -37 -9 -3 -74 -6 -143 -6 -70 0
-242 -5 -383 -11 -195 -9 -295 -9 -415 0 -88 7 -217 16 -289 22 -71 5 -212 9
-312 9 -139 0 -183 3 -183 13 0 8 -3 8 -9 -2 -23 -36 -68 40 -149 249 -33 85
-72 196 -87 245 -35 115 -61 177 -102 242 -62 97 -95 203 -64 203 37 0 217
-306 265 -451 14 -41 32 -115 41 -164 26 -148 54 -233 34 -100 -44 282 -64
345 -165 530 -67 120 -112 186 -149 216 -19 16 -19 17 10 55 16 22 50 62 76
89 56 61 65 95 38 151 -16 34 -30 46 -79 68 -53 24 -63 25 -107 16 -26 -6 -67
-20 -90 -30 l-42 -18 -15 46 c-8 26 -20 121 -26 212 -14 225 -53 360 -153 540
-23 41 -56 106 -72 145 -66 153 -140 261 -240 352 -52 46 -90 92 -121 145 -25
42 -65 98 -90 125 -25 26 -63 67 -85 90 l-39 43 0 107 0 108 217 -3 c201 -3
228 -6 338 -32 165 -41 258 -50 488 -50 l198 0 -22 -32 c-13 -18 -26 -35 -30
-38 -7 -5 -81 -2 -399 15 -68 3 -122 4 -119 1 6 -7 71 -15 324 -41 88 -10 161
-18 162 -19 1 -1 -29 -43 -67 -94 -89 -118 -123 -178 -154 -277 -40 -127 -42
-150 -17 -204 31 -65 75 -93 148 -94 68 -1 101 16 181 95 35 35 68 82 94 135
35 70 43 98 54 195 7 62 13 114 14 116 0 1 20 2 44 2 40 0 44 -2 49 -29 9 -44
66 -83 122 -83 50 0 87 24 158 101 21 23 47 41 57 41 34 0 324 61 340 71 11 8
5 9 -20 4 -102 -17 -312 -46 -319 -43 -5 2 9 41 31 88 47 102 64 164 77 289 6
51 13 96 16 99 2 3 112 8 242 12 131 4 257 7 281 8 29 1 59 -6 93 -23z m1297
-25 c24 -4 45 -10 48 -13 10 -9 -5 -26 -37 -43 -29 -14 -31 -14 -59 15 -34 33
-41 67 -12 56 9 -3 36 -10 60 -15z m-2200 -17 c-2 -5 -14 -30 -26 -58 -13 -27
-33 -68 -45 -90 -11 -22 -37 -71 -57 -109 -26 -52 -41 -70 -59 -73 -22 -3 -23
-1 -16 34 8 44 79 270 87 278 5 5 78 22 106 24 8 1 12 -2 10 -6z m-328 -100
c-16 -32 -40 -70 -53 -84 l-22 -27 -240 19 c-132 10 -260 18 -284 18 -24 1
-42 4 -38 7 3 3 81 19 174 35 258 45 394 69 438 79 22 4 44 8 48 9 5 1 -6 -25
-23 -56z m2852 22 c15 -59 -18 -213 -82 -385 -18 -47 -37 -103 -43 -125 -5
-22 -21 -72 -34 -112 -12 -39 -23 -80 -23 -91 0 -11 -7 -37 -16 -58 -9 -22
-20 -52 -25 -69 -17 -69 -111 -281 -142 -321 -57 -75 -63 -75 -99 3 -16 37
-34 92 -38 123 -5 30 -15 73 -23 95 -8 22 -17 63 -22 90 -4 28 -11 55 -16 61
-8 10 45 148 69 176 5 7 13 31 17 53 10 52 36 95 109 175 32 36 64 76 70 90
11 26 126 198 161 240 35 44 96 91 113 88 8 -2 19 -16 24 -33z m-4527 -19 c24
-32 25 -35 10 -69 -8 -20 -26 -48 -40 -63 -23 -25 -26 -26 -48 -11 -24 16 -82
73 -82 82 0 3 122 90 132 94 1 1 14 -14 28 -33z m-1043 -54 c53 -28 108 -86
108 -115 0 -29 -44 -70 -98 -93 -28 -11 -32 -11 -32 3 0 33 -11 4 -26 -68 -16
-76 -45 -120 -98 -148 -28 -16 -76 1 -76 27 0 47 57 230 108 345 l56 127 12
-30 c7 -17 28 -38 46 -48z m5812 33 c27 -8 65 -15 83 -15 19 0 33 -3 31 -7 -3
-9 -71 -97 -134 -177 -48 -61 -84 -73 -84 -28 0 16 8 53 19 83 10 31 22 78 26
107 4 29 8 52 8 52 1 0 24 -7 51 -15z m-1395 -61 c3 -16 1 -17 -13 -5 -19 16
-21 34 -3 29 6 -3 14 -13 16 -24z m-1553 -279 c-5 -14 -63 -31 -73 -22 -3 3 2
28 12 56 12 37 22 51 38 53 19 3 22 -2 25 -36 2 -21 1 -44 -2 -51z m-1338
-143 c17 -25 32 -49 32 -54 0 -16 81 -118 107 -135 42 -28 84 -73 128 -138 22
-33 46 -66 53 -74 7 -7 11 -20 8 -28 -3 -8 -2 -12 3 -9 5 3 19 -18 31 -47 45
-103 80 -178 103 -215 39 -63 95 -195 118 -278 15 -56 23 -126 29 -244 5 -91
14 -196 21 -235 14 -79 15 -138 1 -175 -8 -22 -11 -18 -30 40 -11 36 -33 139
-47 230 -28 176 -50 272 -122 525 -37 130 -59 187 -122 307 -85 163 -151 249
-362 465 l-119 122 7 61 6 61 61 -67 c34 -37 76 -87 94 -112z m-1327 -12 c14
-8 19 -21 19 -53 0 -43 -14 -77 -26 -64 -11 11 -43 111 -38 119 7 11 22 10 45
-2z m-73 -196 c-83 -84 -95 -118 -55 -158 16 -16 41 -26 75 -31 28 -4 56 -13
62 -20 18 -22 -26 -109 -80 -158 -52 -46 -148 -103 -158 -92 -3 3 -7 117 -7
253 l0 247 44 58 c24 32 60 66 80 76 l35 19 28 -71 27 -71 -51 -52z m1458 -71
c19 -25 17 -41 -4 -48 -11 -3 -38 -31 -61 -63 -39 -52 -42 -61 -36 -97 3 -22
7 -45 7 -51 2 -17 73 -16 144 2 72 18 94 14 94 -16 0 -24 -25 -35 -115 -55
-65 -13 -129 -9 -118 8 3 6 1 7 -5 3 -15 -9 -72 24 -72 41 0 7 5 13 10 13 5 0
9 3 8 8 -2 8 17 70 37 117 7 17 22 53 33 80 12 28 26 49 32 48 5 -2 9 0 9 5
-5 27 18 30 37 5z m-1715 -195 c-1 -112 -4 -204 -6 -206 -2 -2 -21 2 -44 8
l-41 11 6 127 c4 82 12 138 22 157 17 33 61 105 65 105 1 0 0 -91 -2 -202z
m1789 -2 c0 -3 -4 -8 -10 -11 -5 -3 -10 -1 -10 4 0 6 5 11 10 11 6 0 10 -2 10
-4z m3636 -253 c-14 -26 -25 -42 -26 -35 0 17 40 95 46 89 3 -3 -6 -27 -20
-54z m-4696 -16 c0 -7 -20 -32 -44 -56 l-43 -42 -32 39 c-17 22 -31 42 -31 46
0 9 63 24 108 25 28 1 42 -3 42 -12z m966 -17 c8 0 -4 -16 -25 -36 -47 -42
-61 -77 -63 -162 -1 -34 -3 -62 -4 -62 -1 0 -12 17 -24 37 -27 47 -29 130 -4
169 22 32 74 66 92 59 8 -3 20 -5 28 -5z m-1082 -132 c-5 -35 -2 -54 10 -72
27 -43 20 -61 -51 -123 -87 -76 -143 -161 -143 -218 0 -22 4 -45 9 -51 5 -5
11 -62 15 -126 6 -118 6 -118 -16 -118 -13 0 -32 -3 -44 -6 -19 -5 -22 1 -32
53 -45 240 -95 500 -99 511 -4 8 6 12 28 12 66 0 133 55 191 155 23 39 48 78
57 88 15 18 17 17 49 -19 30 -35 32 -41 26 -86z m1240 96 c9 -3 14 -10 11 -14
-3 -5 4 -6 14 -3 16 4 19 1 14 -16 l-5 -22 -37 22 c-20 13 -54 26 -76 29 l-40
7 52 2 c28 0 58 -2 67 -5z m-1636 -224 c4 0 13 -66 20 -147 13 -160 43 -295
97 -434 5 -13 -3 -19 -35 -27 -46 -11 -40 -17 -101 109 -14 30 -38 74 -53 97
-14 23 -54 104 -87 180 l-61 137 17 73 c9 39 20 72 25 72 8 0 22 -37 35 -95
12 -52 128 -360 132 -348 2 6 -12 89 -31 184 -19 96 -38 197 -42 224 l-7 50
42 -37 c22 -21 45 -38 49 -38z m1437 -28 c-2 -7 0 -10 5 -7 5 3 30 -36 54 -88
25 -51 51 -99 59 -105 8 -7 35 -15 60 -18 37 -5 52 -2 81 16 20 12 36 25 36
28 0 4 7 16 16 27 12 16 16 17 23 6 6 -9 1 -27 -16 -52 -21 -32 -31 -38 -73
-44 -65 -9 -116 7 -162 52 -36 35 -51 62 -26 47 7 -4 8 -3 4 5 -4 6 -11 9 -16
6 -12 -7 -33 32 -25 45 4 6 1 9 -7 8 -7 -2 -13 4 -13 12 0 8 -4 18 -9 21 -5 4
-10 27 -13 50 -3 41 -2 43 12 24 9 -11 13 -25 10 -33z m188 -7 c-3 -9 -8 -14
-10 -11 -3 3 -2 9 2 15 9 16 15 13 8 -4z m187 7 c0 -4 -9 -15 -20 -25 -19 -16
-20 -16 -20 1 0 10 3 22 7 25 9 10 33 9 33 -1z m-1156 -81 c13 -25 38 -142 32
-148 -7 -8 -86 152 -82 163 9 23 35 16 50 -15z m-49 -42 c4 -10 22 -44 40 -75
l34 -56 -19 -37 c-32 -64 -137 -146 -260 -204 -108 -50 -103 -52 -127 55 -12
51 -20 94 -18 96 2 2 12 -1 23 -7 78 -41 190 38 247 174 36 89 44 99 61 84 7
-6 16 -19 19 -30z m391 -292 c46 -71 57 -178 22 -213 -12 -13 -20 -8 -54 35
-37 48 -54 61 -54 42 0 -4 18 -31 40 -59 l41 -51 -33 -38 c-18 -21 -39 -44
-46 -52 -7 -7 -22 -31 -33 -52 -18 -37 -19 -41 -3 -71 9 -18 40 -57 68 -86 92
-97 95 -121 25 -267 -35 -75 -43 -103 -47 -165 -3 -68 -1 -80 25 -130 35 -66
98 -116 136 -106 58 14 107 76 133 166 7 25 26 81 42 125 16 44 38 107 48 140
12 37 24 60 34 60 8 0 27 -20 44 -44 29 -43 29 -45 28 -183 -1 -138 -1 -140
25 -164 37 -34 84 -40 167 -20 97 23 154 9 203 -51 l34 -42 -55 -43 c-30 -24
-80 -56 -111 -72 -62 -31 -97 -72 -115 -133 -25 -85 39 -149 174 -174 89 -16
147 -4 219 45 81 55 113 103 132 195 9 41 18 77 20 80 3 2 23 -1 46 -8 49 -15
69 -53 69 -131 0 -57 10 -81 49 -123 63 -69 143 -77 267 -27 l77 31 37 -26
c49 -34 91 -45 172 -47 60 0 66 -2 56 -17 -27 -43 -284 -161 -352 -161 -11 0
-28 -5 -36 -10 -10 -7 10 -10 66 -10 92 0 169 22 245 71 55 35 122 105 114
119 -5 9 7 14 63 25 l32 7 -76 -106 c-42 -59 -74 -109 -71 -112 12 -13 145
143 167 196 7 16 25 34 42 41 28 11 33 11 49 -10 23 -28 24 -84 3 -119 -18
-31 -58 -61 -199 -150 -137 -87 -145 -95 -145 -152 0 -32 6 -56 20 -73 l20
-25 -72 -17 c-119 -28 -230 -30 -323 -7 -70 18 -75 21 -40 21 44 1 215 28 222
35 2 2 -44 7 -104 10 -149 9 -247 28 -404 80 -74 25 -179 55 -234 66 -61 13
-112 31 -130 44 -16 13 -77 49 -135 81 -58 33 -107 63 -110 67 -15 20 -164
203 -244 297 -49 58 -91 108 -93 110 -2 2 -5 2 -8 -1 -9 -9 82 -168 146 -254
22 -31 39 -57 37 -59 -11 -11 -132 99 -176 160 -160 217 -286 404 -343 510
-41 77 -95 212 -115 290 l-13 50 3 -75 c4 -74 26 -171 64 -281 24 -68 42 -104
98 -195 24 -39 44 -73 44 -77 0 -11 -141 137 -169 178 -102 146 -169 371 -172
573 0 48 -2 53 -10 32 -15 -37 -22 -245 -11 -319 l9 -64 -29 34 c-16 19 -42
53 -59 77 l-31 43 4 137 c4 121 7 145 31 202 15 36 36 71 47 78 11 7 48 15 83
18 34 3 76 10 93 15 50 15 126 104 158 184 31 75 84 135 120 135 13 0 29 -13
42 -33z m1338 -31 c36 -15 76 -60 76 -84 0 -9 -14 -31 -32 -49 l-32 -33 -12
29 c-18 43 -67 50 -141 22 -31 -12 -57 -20 -59 -18 -2 2 2 25 9 52 10 42 18
51 56 72 50 26 87 29 135 9z m-1145 -134 c8 -7 23 -46 33 -85 11 -40 29 -92
41 -117 28 -59 119 -165 180 -208 26 -19 61 -54 77 -77 45 -65 79 -96 192
-172 111 -74 217 -133 241 -133 8 0 36 -23 62 -52 26 -28 65 -65 87 -81 56
-40 323 -164 383 -178 44 -10 54 -17 83 -60 17 -27 32 -53 32 -57 0 -5 8 -16
18 -25 16 -14 53 -18 248 -22 370 -8 570 -21 664 -44 94 -23 209 -37 375 -46
61 -4 126 -12 145 -20 21 -8 87 -13 168 -14 73 -1 139 -4 147 -7 31 -12 388
42 510 77 112 33 304 99 370 129 l62 28 -5 -24 c-2 -13 -21 -42 -41 -64 -31
-35 -49 -44 -141 -71 -182 -54 -206 -72 -216 -167 -5 -54 -12 -72 -35 -94 -15
-15 -34 -28 -42 -28 -18 0 -40 26 -56 67 -15 37 -43 47 -87 28 -50 -21 -57
-41 -89 -279 -18 -136 -41 -184 -112 -241 -82 -64 -146 -79 -209 -49 -52 25
-44 46 51 139 96 94 124 144 125 221 0 90 -41 174 -86 174 -33 0 -58 -14 -119
-64 -99 -83 -113 -90 -179 -87 -25 1 -28 4 -23 29 2 15 11 41 18 58 18 44 -3
92 -48 110 -41 18 -195 12 -225 -8 -11 -8 -30 -38 -42 -67 -26 -64 -71 -105
-139 -123 -41 -10 -49 -10 -63 3 -14 15 -14 20 0 54 32 75 8 156 -50 175 -65
22 -120 -30 -247 -230 -93 -145 -153 -215 -204 -236 -51 -22 -125 -18 -164 9
-67 45 -54 66 124 194 151 109 186 154 187 238 0 72 -24 120 -66 128 -15 2
-75 -6 -133 -20 -195 -46 -262 -42 -315 18 -33 36 -62 37 -175 4 -106 -31
-143 -32 -174 -2 -37 34 -54 76 -60 151 -11 116 -63 181 -148 181 -79 0 -131
-72 -137 -190 -4 -55 -10 -77 -30 -103 -32 -42 -95 -79 -148 -88 -53 -8 -150
12 -175 37 -47 47 -12 100 121 184 92 58 150 120 150 160 0 39 -97 156 -140
170 -11 3 -48 -1 -82 -10 -35 -9 -88 -18 -119 -22 -49 -5 -59 -3 -78 16 -25
25 -24 48 5 162 17 70 18 117 1 149 -7 14 -23 53 -36 87 -27 74 -50 97 -96 97
-61 0 -82 -33 -134 -214 -17 -58 -35 -134 -41 -170 -17 -99 -37 -154 -70 -185
l-30 -29 -26 25 c-73 68 -75 144 -10 286 39 86 46 109 46 164 0 77 -14 104
-99 185 -34 32 -61 63 -61 70 0 6 26 52 59 100 75 115 87 139 95 197 l7 48 42
-37 c23 -21 48 -44 56 -52z m4948 -424 c-19 -29 -46 -76 -61 -104 -24 -44 -44
-62 -134 -122 -59 -38 -127 -80 -152 -92 -25 -13 -75 -42 -112 -66 -88 -57
-213 -120 -263 -133 -36 -9 -162 -34 -383 -76 -39 -8 -105 -23 -145 -34 -87
-25 -97 -25 -97 -7 0 17 15 22 95 31 95 11 213 47 295 90 40 21 97 45 108 45
19 0 257 71 292 88 30 13 96 61 136 97 6 6 86 64 178 130 92 66 191 139 219
162 29 23 53 42 54 42 2 1 -12 -23 -30 -51z m-1422 -410 c43 -19 69 -74 66
-135 -2 -37 -16 -26 -28 20 -16 59 -50 93 -104 102 -35 6 -40 9 -24 16 29 11
61 11 90 -3z m1011 -133 c-15 -19 -32 -35 -37 -35 -6 0 5 18 23 39 40 48 51
45 14 -4z m-1053 -130 c-1 -116 5 -127 63 -105 41 16 210 40 274 39 l55 0 -85
-25 c-360 -107 -423 -114 -930 -113 -234 1 -398 5 -375 9 56 11 321 29 566 39
176 7 210 11 230 26 42 32 113 137 124 184 8 31 20 50 36 58 38 19 44 2 42
-112z m422 -380 c-44 -41 -75 -74 -70 -75 6 0 49 16 95 35 46 19 85 33 87 31
6 -6 -89 -58 -182 -101 -44 -21 -89 -42 -100 -48 -18 -9 -17 -7 3 15 13 14 32
55 43 91 10 35 26 70 34 77 12 10 120 41 165 49 3 0 -31 -33 -75 -74z m-1125
-98 c0 -8 -7 -29 -16 -46 -24 -47 -13 -109 23 -138 22 -18 41 -23 92 -23 79 0
127 25 189 99 38 45 73 66 72 44 -2 -29 -80 -119 -161 -185 -45 -36 -80 -53
-165 -81 -60 -19 -131 -38 -159 -41 -27 -3 -120 -22 -205 -42 -178 -40 -293
-60 -400 -68 l-75 -5 65 23 c92 32 116 44 200 100 89 58 85 55 78 61 -2 3 -45
-13 -95 -34 -50 -22 -112 -46 -139 -54 -27 -8 -116 -36 -198 -61 -145 -45
-152 -47 -235 -40 l-86 7 65 19 c37 11 92 19 128 18 100 -1 167 38 248 147 16
21 34 44 41 51 7 7 48 57 92 110 70 85 132 142 154 142 4 0 7 -29 7 -65 0 -56
4 -69 24 -90 38 -38 85 -41 153 -10 69 31 97 56 114 98 25 64 45 77 121 77 50
0 68 -3 68 -13z m750 -16 c0 -21 52 -69 82 -76 l33 -7 -55 -18 c-30 -10 -69
-21 -87 -24 l-32 -7 16 58 c8 32 17 64 19 71 4 14 24 17 24 3z"/>
<path d="M4699 11241 c-71 -14 -109 -65 -109 -144 0 -39 29 -139 45 -156 34
-35 171 60 196 136 16 48 6 111 -23 139 -27 27 -60 35 -109 25z m59 -111 c2
-30 -3 -42 -33 -73 -20 -21 -41 -35 -46 -32 -5 4 -9 33 -9 65 0 65 13 82 60
77 21 -2 25 -8 28 -37z"/>
<path d="M6220 11156 c0 -2 7 -7 16 -10 8 -3 12 -2 9 4 -6 10 -25 14 -25 6z"/>
<path d="M5180 11143 c-81 -15 -169 -196 -122 -253 16 -20 20 -21 67 -9 27 7
65 22 85 33 105 60 132 112 93 177 -16 26 -69 61 -90 58 -4 -1 -19 -4 -33 -6z
m48 -94 c3 -15 -72 -99 -89 -99 -16 0 24 87 50 107 19 15 35 11 39 -8z"/>
<path d="M3933 11014 c-41 -20 -55 -62 -55 -159 0 -41 -4 -77 -9 -80 -22 -14
3 -75 32 -75 22 0 98 84 118 131 63 145 20 235 -86 183z m63 -49 c8 -21 -5
-87 -16 -80 -4 3 -6 -3 -4 -12 3 -10 -6 -34 -18 -53 l-23 -35 -3 60 c-4 69 2
98 24 119 19 20 33 20 40 1z"/>
<path d="M6510 10981 c-61 -24 -185 -108 -259 -176 -33 -31 -65 -54 -71 -50
-6 3 -7 0 -4 -9 8 -22 11 -21 60 20 25 20 49 32 55 28 7 -4 9 -3 6 4 -10 15
141 99 210 117 81 21 144 20 170 -5 40 -37 71 -85 102 -158 l31 -73 -43 34
c-54 44 -74 54 -132 67 -59 13 -149 -2 -216 -36 -26 -13 -68 -25 -93 -26 -25
-2 -46 -6 -46 -10 0 -5 -9 -8 -19 -8 -23 0 -122 -51 -165 -85 -50 -40 -87 -77
-83 -82 3 -2 44 18 93 44 49 26 103 54 119 60 l30 13 -34 -28 c-19 -15 -50
-42 -69 -59 -19 -18 -39 -30 -45 -26 -5 3 -7 1 -4 -4 4 -6 -5 -23 -18 -37 -27
-30 -30 -36 -15 -36 6 0 20 11 32 25 12 14 28 23 36 20 7 -2 11 -1 7 4 -7 13
33 40 156 104 253 133 361 115 486 -80 42 -66 53 -126 53 -295 0 -92 6 -151
20 -213 24 -102 37 -129 82 -171 52 -50 89 -64 165 -64 134 0 223 73 238 195
12 91 4 96 -42 23 -24 -39 -54 -73 -72 -83 -50 -25 -113 -29 -169 -11 -56 19
-70 32 -103 95 -21 41 -22 54 -20 232 1 168 -1 195 -20 251 -11 34 -29 74 -40
89 -10 15 -18 33 -16 41 2 7 2 9 -1 5 -2 -5 -13 -1 -23 9 -10 9 -16 20 -14 24
10 17 -27 184 -51 231 -49 98 -154 134 -264 90z"/>
<path d="M6045 10933 c-36 -19 -49 -38 -51 -78 -2 -16 -6 -45 -9 -63 -9 -42
24 -82 66 -82 29 0 89 29 123 58 50 45 61 124 23 160 -29 27 -107 29 -152 5z
m95 -73 c0 -21 -36 -59 -67 -71 -31 -11 -37 -7 -29 19 17 53 96 95 96 52z"/>
<path d="M3480 10839 c-61 -23 -79 -103 -46 -198 9 -24 14 -46 12 -50 -3 -4
10 -5 29 -3 41 5 76 41 98 102 23 61 22 105 -3 130 -11 11 -24 20 -29 20 -5 0
-15 2 -23 4 -7 3 -24 0 -38 -5z m47 -50 c8 -8 4 -31 -15 -85 -14 -41 -28 -74
-32 -74 -8 0 -30 78 -30 106 0 20 38 64 55 64 6 0 16 -5 22 -11z"/>
<path d="M4279 10680 c-51 -27 -137 -126 -145 -167 -8 -42 17 -83 50 -83 42 0
159 41 203 71 77 53 93 104 48 153 -45 49 -97 57 -156 26z m105 -51 c32 -25
32 -38 3 -66 -22 -21 -115 -63 -169 -76 -57 -15 -43 32 31 102 69 65 94 72
135 40z"/>
<path d="M7160 10585 c0 -4 17 -27 38 -51 46 -51 156 -260 146 -276 -4 -7 -3
-8 4 -4 7 4 20 -10 32 -34 11 -22 25 -38 30 -35 10 6 3 120 -12 190 -18 80
-69 150 -136 184 -41 21 -102 36 -102 26z"/>
<path d="M7493 10446 c7 -73 38 -186 51 -186 16 0 -1 153 -23 203 -11 26 -23
47 -27 47 -4 0 -4 -29 -1 -64z"/>
<path d="M3055 10388 c-40 -23 -46 -40 -40 -113 4 -38 12 -81 19 -95 7 -14 12
-31 10 -38 -1 -7 0 -8 2 -3 5 9 72 -23 84 -40 11 -15 52 13 65 46 30 69 10
200 -34 237 -26 20 -76 23 -106 6z m68 -63 c15 -15 21 -35 32 -110 7 -50 -3
-65 -32 -54 -46 17 -79 147 -43 169 20 13 26 12 43 -5z"/>
<path d="M6606 10343 c25 -12 64 -66 64 -87 0 -2 -30 -6 -67 -9 -116 -10 -327
-82 -387 -130 -74 -62 -127 -120 -152 -169 -36 -70 -57 -164 -50 -216 9 -70
69 -183 121 -231 26 -24 44 -45 42 -47 -7 -7 -158 55 -197 81 -62 41 -119 75
-127 75 -16 0 142 -136 196 -168 112 -68 241 -102 387 -102 116 0 191 22 304
90 127 76 204 165 243 282 5 15 10 15 53 2 69 -21 74 -13 13 20 -69 37 -103
65 -162 135 -56 65 -107 160 -132 246 -51 176 -93 245 -148 244 l-32 0 31 -16z
m84 -192 c4 -8 11 -37 15 -65 10 -78 58 -168 128 -239 34 -35 73 -70 86 -78
l25 -16 -43 -79 c-55 -103 -66 -114 -67 -69 -1 43 -26 72 -75 85 -76 21 -226
-26 -179 -55 19 -12 10 -45 -15 -57 -21 -9 -32 -8 -60 5 l-35 17 -15 -30 c-18
-34 -20 -93 -4 -122 11 -20 9 -20 -78 -17 -83 4 -92 6 -137 39 -37 27 -60 55
-95 120 -41 76 -46 92 -46 150 0 181 198 388 400 419 82 13 184 8 195 -8z"/>
<path d="M6425 10042 c-107 -38 -195 -123 -230 -223 -20 -55 -22 -151 -5 -204
21 -66 25 -59 25 43 0 93 2 100 38 168 44 82 108 148 191 198 65 39 59 45 -19
18z"/>
<path d="M7689 10303 c-13 -16 -12 -17 4 -4 16 13 21 21 13 21 -2 0 -10 -8
-17 -17z"/>
<path d="M2302 10104 c-98 -49 -108 -143 -26 -249 32 -42 50 -44 87 -9 65 60
86 173 44 235 -26 40 -57 46 -105 23z m58 -93 c0 -28 -21 -89 -36 -104 -11
-10 -44 43 -44 72 0 32 27 61 57 61 19 0 23 -5 23 -29z"/>
<path d="M5825 10004 c-73 -83 -138 -208 -150 -285 -15 -100 34 -250 101 -309
38 -33 81 -47 169 -55 67 -6 60 0 -43 36 -41 14 -72 33 -92 55 -62 71 -84 242
-45 359 10 33 40 101 66 152 25 51 43 93 40 93 -3 0 -24 -21 -46 -46z"/>
<path d="M3196 9995 c-22 -8 -53 -28 -70 -45 -28 -28 -31 -36 -30 -94 0 -35 7
-78 14 -95 11 -28 11 -33 -5 -45 -21 -15 -14 -46 11 -46 24 0 135 63 160 92
77 84 77 211 1 238 -36 12 -33 12 -81 -5z m64 -100 c0 -41 -18 -81 -48 -108
-20 -19 -21 -18 -31 20 -17 58 -13 80 15 102 42 33 64 28 64 -14z"/>
<path d="M2601 9848 c-21 -19 -23 -28 -19 -92 6 -84 49 -179 85 -184 31 -5 83
89 83 151 0 118 -83 187 -149 125z m79 -124 c0 -44 -15 -68 -23 -37 -12 43
-17 94 -11 105 13 20 34 -23 34 -68z"/>
<path d="M2004 9736 c-65 -28 -134 -121 -134 -180 0 -104 173 -86 231 24 23
43 24 112 3 145 -19 28 -52 32 -100 11z m26 -77 c0 -38 -38 -88 -67 -89 -23 0
-13 39 18 75 35 40 49 44 49 14z"/>
<path d="M1578 9520 c-14 -10 -28 -17 -32 -15 -3 3 -4 2 -2 -1 2 -3 -35 -42
-83 -87 -112 -105 -361 -357 -353 -357 3 0 -5 -11 -18 -25 -12 -13 -27 -22
-33 -18 -6 3 -7 1 -3 -5 10 -17 -26 -74 -42 -67 -7 2 -10 1 -7 -4 3 -6 -15
-42 -41 -81 -56 -87 -114 -210 -114 -242 0 -17 7 -11 26 27 27 52 68 113 89
130 7 6 45 50 85 99 77 95 102 124 165 196 22 25 69 79 105 120 36 41 73 84
84 95 10 11 50 59 88 107 39 48 75 85 81 81 5 -3 7 -1 4 4 -4 6 4 22 18 37 28
31 18 34 -17 6z"/>
<path d="M6850 9443 c-82 -82 -173 -132 -300 -164 -131 -34 -338 -62 -420 -57
-69 3 -77 -5 -22 -24 25 -9 88 -13 202 -12 246 2 353 34 473 144 57 53 136
155 126 164 -2 2 -29 -21 -59 -51z"/>
<path d="M1725 9298 c-50 -27 -125 -115 -125 -146 0 -5 11 -21 25 -36 20 -22
33 -26 77 -26 93 0 168 62 168 137 0 66 -81 106 -145 71z m55 -73 c0 -21 -49
-55 -79 -55 -25 0 -25 1 17 41 41 38 62 43 62 14z"/>
<path d="M4905 9239 c-32 -5 -127 -22 -210 -39 -279 -55 -444 -80 -697 -105
-264 -27 -336 -40 -432 -75 -74 -28 -67 -36 9 -10 80 28 193 47 380 65 281 27
398 45 785 120 290 56 450 56 801 -1 88 -14 167 -24 177 -22 26 5 -287 57
-408 68 -127 11 -323 11 -405 -1z"/>
<path d="M5753 9163 c9 -2 23 -2 30 0 6 3 -1 5 -18 5 -16 0 -22 -2 -12 -5z"/>
<path d="M6593 9093 c9 -2 25 -2 35 0 9 3 1 5 -18 5 -19 0 -27 -2 -17 -5z"/>
<path d="M1268 8968 c-142 -121 -234 -226 -311 -353 -59 -100 -107 -220 -106
-270 0 -26 4 -22 29 32 46 99 109 193 320 469 14 18 53 67 88 108 35 42 61 76
58 76 -3 0 -38 -28 -78 -62z"/>
<path d="M3290 8910 c-58 -21 -138 -48 -178 -60 -40 -12 -71 -24 -68 -27 8 -8
256 70 341 108 70 31 14 19 -95 -21z"/>
<path d="M3008 8813 c7 -3 16 -2 19 1 4 3 -2 6 -13 5 -11 0 -14 -3 -6 -6z"/>
<path d="M1165 8588 c-57 -76 -90 -140 -121 -232 -45 -132 -24 -107 77 89 56
108 99 199 96 202 -3 3 -27 -24 -52 -59z"/>
<path d="M2250 8570 c-8 -5 -10 -10 -5 -10 6 0 17 5 25 10 8 5 11 10 5 10 -5
0 -17 -5 -25 -10z"/>
<path d="M8021 9746 c35 -24 69 -85 69 -124 0 -39 -23 -95 -65 -157 -24 -36
-40 -65 -35 -65 17 0 109 112 120 146 16 48 8 124 -16 156 -23 31 -75 68 -94
68 -8 0 2 -11 21 -24z"/>
<path d="M7725 9528 c-41 -15 -41 -15 -16 -42 13 -13 21 -32 19 -43 -4 -24
-67 -29 -107 -8 -31 15 -31 15 -51 -17 -35 -58 -19 -116 44 -156 81 -52 208
-24 284 63 26 29 32 44 32 81 0 107 -93 161 -205 122z"/>
<path d="M2537 7835 c-20 -14 -53 -49 -72 -78 -19 -28 -62 -83 -95 -122 -86
-100 -93 -111 -94 -158 -1 -62 11 -94 36 -100 49 -13 67 2 113 92 24 47 52 95
62 106 10 11 27 40 37 65 10 25 23 51 28 58 6 7 24 38 39 69 21 42 26 61 18
75 -13 24 -27 23 -72 -7z"/>
<path d="M2083 7773 c1 -45 6 -78 10 -74 12 12 10 102 -2 131 -8 20 -10 8 -8
-57z"/>
<path d="M2166 7668 c-9 -12 -16 -34 -16 -47 0 -25 1 -25 14 -6 12 18 28 75
20 75 -1 0 -10 -10 -18 -22z"/>
<path d="M2060 7665 c0 -5 -7 -32 -15 -59 -15 -48 -15 -49 4 -32 22 20 33 65
20 86 -4 8 -9 11 -9 5z"/>
<path d="M1546 6939 c-38 -44 -66 -97 -66 -123 0 -26 28 -30 72 -10 45 20 35
32 -12 15 -17 -5 -30 -6 -30 -2 0 18 30 78 59 119 40 54 24 55 -23 1z"/>
<path d="M2230 6923 c-17 -62 -32 -256 -22 -294 7 -29 10 -18 16 71 4 58 11
138 17 178 12 82 6 105 -11 45z"/>
<path d="M1985 6699 c-64 -95 -67 -129 -25 -248 18 -50 35 -89 37 -87 3 2 -1
35 -7 73 -25 135 -24 174 5 238 14 33 33 67 42 77 9 10 12 18 6 18 -6 0 -32
-32 -58 -71z"/>
<path d="M2099 6630 l-23 -69 24 -50 c14 -27 28 -47 32 -45 16 10 27 171 14
212 -12 36 -21 26 -47 -48z"/>
<path d="M2093 6296 c-33 -57 -68 -123 -76 -147 -15 -45 -34 -219 -22 -208 3
4 14 40 24 80 10 41 41 121 69 179 45 95 78 187 70 195 -2 2 -31 -43 -65 -99z"/>
<path d="M1518 5323 c-13 -21 -30 -51 -38 -67 -21 -40 -54 -60 -87 -51 -23 5
-25 4 -14 -9 8 -9 25 -16 38 -16 44 0 79 35 107 107 14 37 24 68 22 71 -3 2
-15 -13 -28 -35z"/>
<path d="M1803 5057 c-11 -12 -38 -49 -60 -82 -59 -87 -74 -99 -123 -92 -34 4
-39 3 -30 -8 29 -35 101 -24 142 21 19 23 100 175 95 180 -2 2 -13 -6 -24 -19z"/>
<path d="M921 4546 c-44 -64 -78 -88 -101 -74 -24 15 -32 45 -19 72 9 18 7 18
-11 -3 -24 -28 -19 -56 17 -89 27 -24 53 -23 85 6 19 16 71 122 64 129 -2 3
-18 -16 -35 -41z"/>
<path d="M893 4117 c-34 -18 -62 -35 -62 -38 -2 -17 63 8 96 37 46 40 44 40
-34 1z"/>
<path d="M1175 7020 c-45 -29 -82 -34 -112 -15 -18 12 -24 13 -21 3 2 -7 17
-19 32 -26 24 -12 34 -12 71 2 23 9 51 26 60 36 23 26 8 25 -30 0z"/>
<path d="M1067 6576 c-72 -30 -80 -37 -128 -107 -21 -31 -59 -75 -85 -98 -26
-22 -44 -41 -40 -41 24 0 71 39 141 116 62 68 93 93 142 116 35 17 63 32 63
34 0 10 -40 1 -93 -20z"/>
<path d="M388 6290 c-9 -19 -23 -51 -31 -71 -8 -19 -29 -52 -47 -72 -26 -30
-35 -35 -46 -26 -12 10 -13 9 -8 -5 9 -23 28 -20 63 10 36 30 94 145 89 177
-3 19 -5 18 -20 -13z"/>
<path d="M3148 6624 c-16 -8 -28 -18 -28 -22 0 -5 -16 -25 -35 -46 -56 -61
-60 -122 -10 -144 21 -10 32 -9 63 7 89 46 132 151 82 201 -24 24 -36 24 -72
4z m32 -59 c0 -23 -35 -65 -72 -86 -29 -16 -22 16 15 66 36 50 57 57 57 20z"/>
<path d="M4535 6564 c-128 -20 -484 -92 -458 -93 30 -1 222 25 363 50 188 33
231 39 310 39 52 0 70 3 60 10 -21 14 -169 11 -275 -6z"/>
<path d="M3752 6303 c-49 -116 -52 -163 -10 -163 73 1 134 140 76 171 -22 11
-22 11 -6 -7 14 -16 15 -23 3 -49 -14 -33 -65 -85 -65 -67 0 6 7 43 15 83 9
40 14 74 12 76 -3 2 -13 -18 -25 -44z"/>
<path d="M3679 6002 c43 -52 62 -115 142 -460 73 -316 124 -500 141 -517 7 -7
8 -3 5 10 -3 11 -8 49 -12 85 -40 422 -137 765 -248 878 -51 52 -69 55 -28 4z"/>
<path d="M3914 5797 c24 -75 38 -140 55 -257 26 -179 109 -508 111 -439 0 9
-7 84 -15 167 -26 254 -65 412 -126 501 -17 25 -28 38 -25 28z"/>
<path d="M4110 5782 c0 -24 42 -300 55 -358 26 -120 63 -265 69 -271 18 -19
-5 227 -35 359 -29 132 -89 314 -89 270z"/>
<path d="M3358 5717 c-54 -16 -74 -30 -94 -68 -28 -55 -21 -75 94 -257 56 -90
160 -117 243 -63 112 72 138 156 79 257 -35 63 -64 87 -137 114 -74 28 -128
32 -185 17z m167 -71 c59 -28 77 -46 105 -108 18 -41 19 -51 8 -84 -15 -45
-38 -57 -38 -20 0 41 -30 119 -58 148 -44 47 -115 58 -225 34 -25 -6 -27 -5
-15 13 18 30 47 40 113 40 43 1 74 -6 110 -23z"/>
<path d="M4335 5595 c6 -118 31 -214 76 -289 18 -30 34 -54 35 -53 2 1 -13 52
-31 112 -18 61 -41 146 -50 190 -30 140 -35 147 -30 40z"/>
<path d="M4511 5575 c-1 -19 26 -111 46 -156 19 -42 113 -191 113 -178 0 26
-158 358 -159 334z"/>
<path d="M5380 5449 c-83 -21 -145 -57 -155 -89 -10 -33 62 -172 139 -267 108
-133 201 -190 290 -178 85 11 141 55 166 131 28 83 -21 215 -117 315 -103 109
-172 128 -323 88z m183 -55 c48 -24 114 -92 154 -157 38 -62 55 -157 35 -193
-9 -16 -12 -12 -22 26 -13 51 -37 93 -75 134 -14 15 -44 52 -66 82 -62 82
-101 87 -238 30 -35 -14 -65 -25 -67 -23 -1 1 -5 14 -9 29 -6 23 -2 29 27 44
79 42 207 55 261 28z"/>
<path d="M6358 4964 c-5 -4 -8 -31 -8 -59 0 -135 -90 -377 -203 -544 -42 -63
-77 -119 -77 -125 0 -14 122 107 170 169 80 104 126 229 136 373 6 82 -6 199
-18 186z"/>
<path d="M6555 4730 c-14 -64 -116 -273 -171 -351 -31 -45 -52 -80 -46 -78 20
7 113 102 136 138 37 59 86 197 93 261 6 63 -1 81 -12 30z"/>
<path d="M4485 4639 c-163 -20 -329 -95 -388 -177 -74 -102 -80 -130 -45 -232
25 -74 93 -154 168 -198 41 -25 54 -27 155 -27 96 1 122 5 205 32 52 18 122
37 155 44 122 23 219 96 268 202 32 65 34 121 8 160 -32 50 -133 126 -205 156
-60 25 -200 54 -239 50 -7 -1 -43 -5 -82 -10z m162 -58 c33 -5 92 -24 129 -43
70 -34 157 -111 169 -149 8 -24 -42 -135 -74 -163 -20 -18 -20 -18 -9 12 25
66 -40 172 -130 210 -142 61 -457 68 -562 12 -22 -12 -24 -12 -12 2 21 26 152
85 227 102 119 27 170 30 262 17z"/>
<path d="M6773 4579 c-11 -19 -68 -87 -127 -151 -58 -65 -106 -120 -106 -123
0 -10 107 71 150 116 47 47 114 161 108 181 -2 6 -13 -4 -25 -23z"/>
<path d="M5174 4240 c-35 -14 -36 -26 -10 -79 32 -62 68 -78 118 -52 26 15 34
25 36 53 6 64 -74 107 -144 78z m95 -41 c12 -11 21 -25 21 -32 0 -7 -9 -1 -19
12 -14 19 -28 24 -65 25 -45 1 -46 2 -20 12 33 14 55 9 83 -17z m-12 -36 c28
-37 -28 -47 -57 -11 -10 13 -16 27 -13 31 8 13 56 -2 70 -20z"/>
<path d="M2500 6115 c-7 -9 -8 -15 -2 -15 5 0 12 7 16 15 3 8 4 15 2 15 -2 0
-9 -7 -16 -15z"/>
<path d="M2563 5893 c9 -2 23 -2 30 0 6 3 -1 5 -18 5 -16 0 -22 -2 -12 -5z"/>
<path d="M2447 5625 c3 -8 9 -12 14 -9 12 7 11 11 -5 17 -10 4 -13 1 -9 -8z"/>
<path d="M2184 4658 c-75 -69 -90 -121 -39 -134 41 -10 107 37 131 95 18 42
18 46 -2 65 -24 24 -41 20 -90 -26z m70 3 c7 -10 -34 -73 -51 -78 -6 -2 -17 6
-24 18 -10 20 -8 25 17 46 31 24 49 29 58 14z m-89 -100 c-9 -16 -25 -3 -18
15 4 10 9 12 15 6 6 -6 7 -15 3 -21z"/>
<path d="M2617 4137 c-15 -40 -27 -77 -27 -84 0 -18 50 -53 77 -53 13 0 38 8
56 17 18 9 55 20 82 23 l50 6 -28 14 c-25 12 -37 12 -95 -3 -37 -9 -72 -17
-78 -17 -19 0 -25 30 -13 69 6 20 9 50 7 68 -3 29 -5 26 -31 -40z"/>
<path d="M2198 4183 c-26 -30 -36 -57 -48 -125 -9 -53 -9 -71 3 -99 l15 -34
-5 36 c-6 40 20 166 43 210 17 33 14 37 -8 12z"/>
<path d="M3375 3646 c-14 -32 -14 -40 -1 -64 24 -47 40 -55 98 -47 29 4 64 14
77 22 16 11 39 14 73 11 l49 -5 -28 18 c-37 25 -84 24 -127 -2 -47 -27 -93
-22 -119 13 -18 24 -19 31 -8 54 6 15 9 29 7 32 -3 3 -13 -11 -21 -32z"/>
<path d="M2933 3569 c-33 -39 -112 -89 -143 -89 -27 0 -60 27 -60 48 0 6 12
18 28 26 36 20 19 20 -19 0 -39 -20 -36 -51 10 -81 38 -26 66 -23 116 10 37
26 98 94 93 105 -1 5 -13 -3 -25 -19z"/>
<path d="M4508 3442 c-19 -10 -56 -35 -80 -55 -25 -20 -48 -37 -52 -37 -3 0
-6 17 -6 38 0 65 -17 71 -25 9 -9 -67 -3 -87 25 -87 21 0 60 17 70 30 20 27
122 90 155 95 70 13 74 24 10 25 -40 0 -73 -6 -97 -18z"/>
<path d="M5713 3390 c-61 -39 -118 -70 -127 -70 -8 0 -18 -4 -21 -10 -13 -22
46 -8 111 25 65 33 181 124 159 125 -5 0 -60 -32 -122 -70z"/>
<path d="M5145 3368 c13 -60 48 -113 77 -116 32 -4 94 26 143 69 39 34 103 53
147 44 53 -12 28 12 -26 25 -67 16 -98 8 -161 -40 -64 -48 -93 -63 -110 -56
-8 3 -26 28 -40 56 -29 58 -39 64 -30 18z"/>
<path d="M4218 3076 c-54 -62 -131 -116 -165 -116 -31 0 -29 19 8 58 42 45 28
53 -16 9 -62 -62 -41 -108 42 -92 39 7 105 68 161 148 45 63 28 59 -30 -7z"/>
<path d="M5571 2985 c-22 -42 -106 -125 -171 -168 -46 -31 11 -20 61 12 81 51
144 135 137 182 -2 15 -9 9 -27 -26z"/>
<path d="M9898 8073 c-9 -11 -18 -48 -22 -90 -6 -66 -4 -73 14 -83 44 -24 130
55 130 119 0 54 -88 93 -122 54z"/>
<path d="M266 8038 c-76 -101 -74 -296 4 -390 66 -80 337 -173 356 -123 9 23
-15 45 -51 45 -65 0 -184 109 -199 182 -3 17 4 53 19 93 15 38 25 87 25 116 0
43 -5 55 -29 80 -42 42 -91 40 -125 -3z"/>
<path d="M9941 7705 c-77 -17 -111 -45 -111 -91 0 -50 32 -74 97 -74 66 0 112
18 142 56 27 34 22 66 -17 100 -31 27 -27 27 -111 9z"/>
<path d="M123 7650 c-31 -13 -39 -54 -20 -96 9 -19 21 -34 26 -34 5 0 11 -9
14 -19 7 -29 72 -39 97 -16 11 10 20 29 20 41 0 41 -30 99 -59 117 -32 19 -45
20 -78 7z"/>
<path d="M9509 7377 c-28 -21 -119 -140 -125 -163 -15 -58 22 -88 98 -80 68 7
122 45 143 100 20 52 15 108 -11 137 -20 22 -80 25 -105 6z"/>
<path d="M8272 6959 c-9 -17 -32 -56 -50 -88 -70 -117 -78 -174 -25 -187 52
-14 85 29 119 156 20 75 23 101 15 123 -14 36 -38 34 -59 -4z"/>
<path d="M7269 6753 c-18 -4 -66 -96 -75 -142 -25 -123 120 -126 172 -4 22 52
17 82 -20 119 -33 33 -43 36 -77 27z"/>
<path d="M8149 6443 c-6 -16 -14 -47 -16 -70 -5 -39 -4 -42 21 -49 39 -9 75
10 92 51 22 54 -3 95 -59 95 -21 0 -30 -7 -38 -27z"/>
<path d="M7894 6325 c-51 -107 -59 -159 -29 -181 66 -49 137 31 151 169 6 70
-4 92 -49 103 -26 6 -29 3 -73 -91z"/>
<path d="M8118 6204 c-14 -8 -31 -29 -37 -46 -6 -18 -30 -61 -53 -96 -30 -45
-42 -77 -46 -112 -4 -44 -2 -52 26 -80 64 -64 135 -23 156 92 4 20 13 39 21
42 27 10 55 69 55 114 0 35 -6 49 -29 73 -32 32 -52 34 -93 13z"/>
<path d="M6943 5768 c-5 -7 -21 -38 -36 -68 -19 -40 -59 -87 -148 -174 -107
-105 -149 -160 -149 -196 0 -6 11 -22 25 -35 18 -19 35 -25 65 -25 35 0 48 7
86 43 43 41 101 135 165 267 36 75 51 176 28 191 -19 12 -25 11 -36 -3z"/>
<path d="M7514 5639 c-14 -16 -18 -36 -19 -96 0 -67 2 -77 24 -94 43 -35 109
-1 132 69 14 44 -2 104 -34 127 -31 22 -80 19 -103 -6z"/>
<path d="M7652 4202 c-28 -24 -44 -67 -36 -98 7 -28 64 -70 146 -107 117 -53
188 -149 188 -251 0 -57 -8 -66 -54 -66 -12 0 -44 -7 -69 -16 -37 -12 -48 -22
-53 -42 -26 -118 -41 -161 -93 -262 -195 -382 -219 -614 -76 -756 60 -60 169
-116 270 -139 95 -22 352 -30 510 -16 225 20 436 25 572 12 510 -48 582 -70
812 -243 143 -108 373 -330 546 -528 26 -30 91 -100 143 -154 83 -86 138 -153
215 -261 12 -17 27 -25 47 -25 20 0 34 -8 48 -27 24 -35 89 -165 108 -218 8
-22 25 -55 37 -72 18 -28 28 -33 61 -33 36 0 47 8 192 153 167 166 177 181
257 397 49 131 56 187 27 223 -19 24 -28 27 -81 27 -34 0 -73 -7 -89 -15 -17
-9 -55 -54 -94 -113 -84 -128 -143 -172 -229 -172 l-57 0 0 39 c0 33 -6 44
-39 73 -42 36 -143 167 -266 348 -218 320 -302 429 -426 550 -47 47 -112 101
-142 120 -31 19 -56 38 -57 41 0 5 96 16 350 39 63 6 131 13 151 16 35 6 46
-1 170 -93 142 -105 356 -253 366 -253 16 0 356 -168 436 -216 50 -30 98 -54
107 -54 8 0 65 -25 126 -57 106 -53 118 -57 218 -67 113 -10 101 -13 200 41
16 8 58 18 93 21 60 5 63 6 63 32 0 59 -88 98 -151 66 -18 -9 -34 -14 -37 -11
-11 11 23 87 60 132 93 112 121 233 53 233 -21 0 -29 -9 -50 -57 -14 -31 -27
-54 -29 -52 -2 2 1 27 7 55 17 85 -9 132 -57 100 -16 -10 -25 -31 -33 -72 -6
-33 -18 -75 -27 -94 l-16 -35 6 33 c10 59 7 138 -7 160 -18 28 -33 34 -64 22
-23 -9 -25 -14 -26 -82 0 -40 -6 -91 -13 -113 l-12 -40 -11 71 c-11 72 -35
124 -58 124 -6 0 -20 -9 -30 -20 -17 -19 -17 -23 -2 -71 21 -65 21 -113 1
-174 l-17 -48 -31 36 c-17 20 -58 49 -92 66 -33 16 -97 53 -142 83 -45 29
-120 78 -168 108 -58 37 -100 72 -126 106 -23 31 -54 58 -78 69 -22 10 -40 21
-40 25 0 4 -16 27 -36 53 -37 48 -38 67 -1 67 12 0 51 15 87 33 l65 32 446 3
c415 3 455 1 570 -18 68 -12 141 -25 162 -31 29 -8 45 -6 72 7 43 20 84 14
173 -27 104 -47 160 -34 207 45 23 39 30 44 71 49 54 6 98 34 102 67 3 21 1
22 -30 16 -18 -4 -49 -9 -68 -11 l-35 -5 40 15 c78 30 132 114 106 164 -7 11
-15 21 -20 21 -4 0 -27 -22 -50 -50 -23 -27 -52 -55 -64 -61 -19 -10 -19 -8 5
17 66 71 79 196 21 210 -31 8 -34 4 -44 -54 -4 -27 -17 -64 -29 -83 l-21 -34
6 81 c6 65 4 88 -9 113 -19 35 -57 42 -87 15 -16 -14 -16 -18 2 -69 22 -62 24
-92 8 -132 l-10 -28 -23 45 c-21 41 -26 45 -61 45 -54 0 -65 -22 -41 -82 23
-59 32 -123 18 -123 -10 0 -20 9 -50 45 -8 9 -29 15 -53 15 -23 0 -87 9 -144
20 -93 19 -107 25 -143 59 -62 59 -111 72 -312 81 -106 5 -197 14 -230 24 -30
8 -89 18 -130 21 -41 3 -95 8 -119 11 l-43 6 7 36 c4 20 9 69 12 108 5 79 -2
92 -55 96 -27 2 -33 8 -48 47 -9 25 -35 64 -57 88 l-40 43 32 59 c42 80 44
159 5 190 -43 34 -93 43 -204 39 -104 -3 -106 -4 -177 -48 -77 -46 -118 -80
-144 -118 l-16 -22 -38 35 c-53 51 -105 74 -188 85 -104 14 -185 12 -327 -6
-217 -27 -229 -30 -284 -85 l-49 -49 7 -66 c4 -36 13 -83 20 -105 13 -38 13
-39 -9 -39 -20 0 -199 35 -237 46 -10 3 -21 24 -28 54 -7 27 -25 68 -41 90
-39 54 -73 54 -143 2 -28 -21 -61 -44 -73 -51 -50 -26 -212 -263 -242 -352
-32 -97 -204 -182 -717 -352 -269 -90 -409 -121 -426 -94 -36 55 -40 287 -8
411 32 120 60 182 136 295 108 163 102 150 81 166 -18 13 -14 17 45 60 69 50
108 98 108 131 0 24 -25 53 -95 109 -27 22 -77 64 -110 94 -109 99 -172 127
-335 145 -46 6 -60 4 -78 -12z m3441 -393 c16 -12 33 -41 41 -70 17 -56 12
-116 -9 -99 -6 5 -15 7 -18 3 -4 -3 -4 15 -1 41 6 40 4 50 -16 71 -28 30 -63
36 -37 7 21 -23 21 -78 2 -112 -23 -41 -18 -57 10 -30 23 22 25 22 49 6 42
-27 95 -84 116 -126 25 -49 25 -53 1 -40 -25 13 -101 13 -101 0 0 -5 10 -10
23 -10 12 0 34 -8 50 -18 l27 -19 -58 -17 c-53 -16 -62 -17 -88 -3 -16 8 -42
17 -59 22 l-30 7 55 28 55 29 -35 1 c-37 0 -140 -27 -202 -54 l-37 -16 -6 33
c-8 50 -10 120 -2 137 6 13 -1 15 -40 13 l-48 -2 43 11 c49 13 58 33 10 24
-31 -5 -32 -5 -14 9 11 8 29 15 40 16 21 0 21 0 0 9 -12 5 -37 5 -56 1 -31 -7
-35 -6 -31 10 3 10 15 25 28 33 40 26 163 58 210 54 25 -2 45 0 45 4 0 7 -63
27 -90 29 -17 0 21 18 65 29 52 14 81 11 108 -11z m92 5 c20 -13 25 -25 25
-59 0 -47 -8 -77 -19 -71 -3 2 -7 -7 -8 -21 -1 -25 -18 -51 -28 -42 -2 3 0 21
5 40 15 51 12 122 -6 147 -18 26 -4 29 31 6z m-3067 -26 c17 -17 15 -29 -13
-61 -24 -26 -26 -27 -47 -13 -12 9 -30 16 -40 16 -25 0 -23 9 9 42 28 30 70
37 91 16z m-28 -144 c0 -3 -8 -15 -17 -28 -16 -22 -19 -22 -62 -9 -58 17 -133
17 -178 -2 -43 -18 -43 -18 -43 -1 0 32 52 44 193 45 59 1 107 -2 107 -5z
m-80 -50 c17 -3 30 -9 30 -13 0 -5 -13 -27 -30 -49 -45 -63 -95 -166 -131
-272 -31 -89 -33 -104 -33 -240 -1 -98 3 -157 12 -183 8 -21 12 -40 10 -42 -2
-2 -30 3 -63 11 -91 21 -109 15 -30 -10 39 -12 79 -27 90 -34 19 -11 18 -11
-7 -12 -15 0 -29 -4 -32 -9 -3 -4 52 2 122 14 245 43 528 132 767 240 72 33
155 63 155 56 0 -4 -18 -25 -41 -46 -56 -55 -96 -121 -112 -185 -14 -54 -15
-55 -57 -61 l-42 -6 4 59 c3 38 1 53 -5 43 -5 -9 -9 -36 -10 -61 -2 -43 -3
-45 -42 -55 -22 -5 -94 -25 -160 -44 -281 -80 -379 -94 -512 -71 -125 21 -172
41 -179 75 -3 14 -13 53 -21 86 -26 102 -26 110 2 173 15 34 25 67 22 74 -4 8
-6 7 -6 -5 -1 -10 -12 -39 -26 -65 -28 -53 -32 -103 -10 -155 8 -20 15 -54 15
-75 0 -53 26 -77 113 -104 60 -19 94 -23 202 -22 118 0 143 4 270 38 77 21
184 50 239 64 l98 26 20 -25 c19 -24 19 -24 8 -1 -14 29 -10 33 32 35 28 2 33
-2 36 -23 6 -39 22 -49 22 -12 0 29 3 32 33 33 17 0 55 6 82 13 l50 12 53 -43
c86 -69 108 -71 298 -26 13 3 41 -8 75 -30 52 -32 175 -87 198 -87 6 0 11 -5
11 -12 0 -21 -239 -2 -322 26 -40 13 -64 18 -54 10 32 -23 138 -53 211 -60 89
-7 139 -12 145 -14 3 -1 -6 -6 -19 -11 -13 -5 -21 -12 -18 -15 3 -3 20 3 39
12 18 10 46 20 62 21 42 4 19 -18 -49 -47 -30 -13 -53 -25 -51 -27 6 -7 107
35 126 52 16 14 24 15 54 5 20 -6 36 -15 36 -18 0 -4 12 -7 28 -8 15 0 82 -7
150 -13 85 -9 131 -10 152 -3 27 10 32 7 72 -36 73 -78 150 -179 258 -337 173
-252 260 -365 389 -505 l59 -64 -29 -33 c-16 -18 -36 -47 -44 -63 -9 -17 -17
-30 -20 -30 -10 0 -81 80 -116 132 -22 32 -66 88 -99 125 -33 36 -75 97 -95
133 -19 37 -52 83 -72 101 -59 53 -164 132 -169 126 -2 -2 38 -37 90 -77 84
-65 100 -83 136 -150 23 -42 68 -106 100 -141 32 -36 75 -92 96 -126 65 -101
139 -173 139 -134 0 17 65 110 83 120 38 20 34 -7 -7 -48 -21 -21 -52 -66 -68
-99 -20 -41 -31 -56 -38 -48 -6 6 -49 54 -96 106 -47 52 -139 163 -204 245
-117 148 -198 239 -325 362 l-65 63 55 -22 c30 -12 61 -26 68 -32 12 -9 102
-20 102 -12 0 2 -28 13 -61 26 -50 18 -83 42 -178 129 -64 59 -135 122 -159
140 -26 21 -39 37 -33 41 13 7 -136 40 -294 65 -55 9 -125 20 -155 25 -30 5
-103 12 -162 16 -167 10 -135 28 40 21 100 -4 133 -3 102 4 -98 19 -536 22
-785 5 -532 -38 -717 -17 -873 99 -87 63 -112 119 -112 247 0 158 40 279 153
467 31 52 57 100 57 107 0 7 19 36 42 66 35 45 36 48 10 24 l-32 -30 0 37 c0
31 5 40 33 57 17 11 44 20 59 20 l27 0 -28 -77 c-16 -43 -48 -115 -71 -161
-42 -85 -90 -212 -90 -241 0 -9 15 27 34 79 18 52 50 129 71 170 21 41 49 104
62 139 37 99 40 103 74 97 16 -3 43 -9 59 -12z m2783 -61 c-8 -29 -9 -29 -48
-17 l-40 12 45 20 c24 12 46 19 48 18 2 -2 0 -17 -5 -33z m-1303 -18 c0 -2 -7
-5 -15 -9 -9 -3 -15 0 -15 9 0 9 6 12 15 9 8 -4 15 -7 15 -9z m323 -100 c-3
-9 -8 -14 -10 -11 -3 3 -2 9 2 15 9 16 15 13 8 -4z m855 -25 c19 -18 22 -32
22 -90 l0 -70 40 0 c45 0 47 4 28 75 -10 39 -10 47 4 61 12 12 20 14 36 5 17
-9 19 -16 11 -43 -21 -79 21 -125 121 -134 82 -7 125 14 155 74 20 41 35 53
35 29 0 -8 20 -54 44 -103 25 -49 48 -101 51 -116 6 -23 3 -28 -20 -34 -36 -9
-85 0 -142 27 -26 13 -52 25 -58 27 -5 3 1 -7 15 -22 l25 -28 -25 6 c-88 18
-161 25 -182 17 -13 -5 -39 -26 -56 -46 l-33 -36 -65 68 c-55 56 -113 140
-105 151 1 1 -9 21 -23 45 -39 67 -41 89 -11 125 22 27 34 32 69 32 29 0 49
-7 64 -20z m257 -30 c-3 -5 -12 -10 -18 -10 -7 0 -6 4 3 10 19 12 23 12 15 0z
m425 -37 l0 -48 -20 25 c-26 34 -26 70 0 70 17 0 20 -7 20 -47z m-106 21 c8
-21 8 -24 -4 -24 -5 0 -9 6 -7 13 1 7 -6 11 -18 9 -16 -2 -17 -1 -5 7 21 15
27 14 34 -5z m-307 -16 c-3 -8 -6 -5 -6 6 -1 11 2 17 5 13 3 -3 4 -12 1 -19z
m123 10 c0 -7 -5 -20 -11 -28 -8 -12 -9 -10 -4 9 4 13 3 21 -2 18 -5 -3 -15
-2 -23 4 -11 6 -8 9 13 9 15 0 27 -5 27 -12z m-80 -12 c0 -2 -7 -6 -15 -10 -8
-3 -15 -1 -15 4 0 6 7 10 15 10 8 0 15 -2 15 -4z m-100 -20 c0 -2 -7 -6 -15
-10 -8 -3 -15 -1 -15 4 0 6 7 10 15 10 8 0 15 -2 15 -4z m86 -17 c6 -5 25 -7
43 -5 31 3 31 3 15 -15 -9 -11 -22 -19 -28 -19 -6 0 -4 4 4 10 8 5 12 12 8 15
-3 4 -16 -3 -27 -14 -22 -22 -43 -25 -76 -11 -15 7 -11 8 19 7 21 -1 41 3 43
9 4 13 -54 37 -68 28 -5 -3 -9 0 -9 6 0 13 57 4 76 -11z m294 6 c0 -8 -4 -15
-10 -15 -5 0 -7 7 -4 15 4 8 8 15 10 15 2 0 4 -7 4 -15z m-341 -19 c-12 -10
-60 -16 -54 -6 3 5 18 10 32 10 15 0 24 -2 22 -4z m277 -18 c0 -10 -1 -18 -3
-18 -1 0 -7 8 -12 18 -7 13 -6 19 2 19 7 0 13 -9 13 -19z m34 1 c0 -5 -4 -9
-8 -9 -5 0 -9 7 -9 15 0 8 4 12 9 9 4 -3 8 -9 8 -15z m59 -2 c8 -10 7 -14 -2
-15 -6 -1 -28 -4 -47 -7 -35 -5 -35 -5 5 8 27 9 35 15 25 19 -8 4 -10 7 -4 7
6 1 17 -5 23 -12z m1470 -45 c8 -15 9 -115 2 -204 -1 -12 -9 -18 -27 -18 -21
0 -25 3 -18 18 15 34 16 128 1 164 -11 26 -12 39 -4 47 16 16 35 13 46 -7z
m-1429 -54 c-1 -60 -39 -164 -80 -220 -19 -26 -38 -47 -41 -48 -9 0 -18 65
-13 87 3 10 18 25 35 32 24 10 29 19 29 47 0 19 -9 53 -21 75 -11 23 -19 42
-17 43 5 4 82 23 96 25 8 1 12 -13 12 -41z m1562 -42 c-3 -61 -14 -88 -52
-119 -50 -43 -66 -35 -33 16 38 56 53 92 53 126 0 15 3 31 7 35 14 14 26 -15
25 -58z m-3914 -136 c12 -25 38 -63 58 -84 l36 -39 -27 -15 c-54 -28 -201 -74
-254 -79 l-54 -6 7 29 c12 46 46 110 87 159 21 25 55 69 76 98 l38 51 5 -35
c4 -19 16 -55 28 -79z m3674 43 c12 -27 20 -67 20 -97 0 -28 5 -57 10 -63 6
-7 7 -25 3 -40 -5 -23 -4 -26 7 -15 8 8 13 38 13 80 0 66 1 67 28 70 33 4 87
-44 87 -78 0 -39 -50 -129 -80 -145 -33 -17 -81 -20 -96 -5 -19 19 -179 70
-221 70 -28 0 -43 4 -43 13 0 15 28 57 50 74 21 17 86 16 125 -3 30 -14 33
-18 28 -52 -3 -25 1 -44 11 -57 16 -19 16 -19 10 8 -4 19 2 46 20 87 29 64 28
85 -5 151 -17 35 -16 49 3 49 5 0 18 -21 30 -47z m304 -41 c-18 -35 -118 -91
-125 -70 -2 6 7 19 20 27 13 8 44 35 69 61 34 35 46 41 48 28 2 -9 -4 -30 -12
-46z m-1973 34 c49 -7 99 -11 112 -9 12 3 26 0 29 -6 14 -22 -37 -27 -142 -13
-130 17 -162 10 -162 -38 0 -16 -4 -30 -10 -30 -21 0 -4 64 25 93 20 20 34 21
148 3z m91 -60 c6 -1 0 -12 -12 -24 -27 -27 -111 -31 -135 -7 -10 9 -17 11
-19 4 -2 -7 -12 -7 -32 1 -30 11 -26 25 9 32 20 4 171 -1 189 -6z m66 -40 c0
-44 -5 -60 -25 -85 -31 -37 -99 -63 -150 -59 -62 5 -51 22 27 43 64 16 69 20
43 25 -41 7 -45 36 -7 43 18 4 42 22 62 47 17 22 36 40 41 40 5 0 9 -24 9 -54z
m1286 2 c-39 -22 -55 -43 -68 -85 -13 -46 -36 -56 -72 -30 -17 13 -17 16 8 64
29 59 33 61 101 62 41 0 47 -2 31 -11z m-1519 -53 c3 -9 3 -19 -1 -22 -7 -7
-36 16 -36 28 0 15 30 10 37 -6z m78 -6 c14 -14 -9 -31 -36 -27 -16 2 -25 11
-27 26 -3 20 0 22 25 16 15 -4 32 -11 38 -15z m1955 -1 c0 -12 -71 -30 -95
-24 -44 11 -18 31 40 31 30 0 55 -3 55 -7z m-3785 -60 c46 -40 46 -42 24 -50
-43 -16 -104 -12 -157 12 -29 12 -50 25 -47 28 7 7 108 50 121 51 6 0 33 -18
59 -41z m-149 -49 c62 -33 53 -32 203 -16 13 1 26 -3 28 -10 6 -15 -55 -33
-137 -40 -62 -5 -67 -3 -122 33 -55 37 -74 64 -44 64 8 0 40 -14 72 -31z m593
-185 c2 -2 -10 -4 -27 -4 -18 0 -32 5 -32 10 0 9 47 4 59 -6z m2342 -151 c19
-49 -11 -228 -39 -236 -9 -3 -25 -8 -34 -12 -15 -6 -14 0 3 57 11 35 22 92 25
128 3 36 7 71 10 78 6 21 24 13 35 -15z m139 -26 c0 -43 -33 -139 -60 -177
-12 -17 -30 -30 -41 -30 -20 0 -26 15 -9 25 16 10 57 95 69 145 17 65 19 70
31 70 5 0 10 -15 10 -33z m-2360 -10 c19 -6 55 -26 79 -45 62 -46 252 -215
247 -219 -12 -12 -197 105 -356 225 -84 63 -85 64 -45 57 22 -4 56 -12 75 -18z
m2098 -58 c13 -57 7 -165 -10 -186 -7 -9 5 -8 38 3 27 9 77 18 111 21 58 5 65
8 107 51 40 41 86 116 86 141 0 5 7 14 15 21 13 11 15 9 15 -13 0 -38 -27 -94
-79 -163 -27 -35 -59 -88 -72 -118 -15 -35 -30 -56 -40 -56 -19 0 -69 -37 -69
-51 0 -5 13 0 30 12 27 21 33 21 69 9 38 -12 41 -11 71 14 36 30 84 34 112 9
29 -26 22 -33 -34 -33 -51 -1 -86 -14 -142 -54 -22 -15 -36 -17 -90 -12 l-63
7 3 47 c3 39 2 42 -5 16 -13 -51 -20 -56 -60 -49 -75 13 -93 94 -45 208 24 56
26 71 21 150 -5 101 10 115 31 26z m-223 -138 l40 -19 -43 -7 c-47 -8 -92 -38
-92 -61 0 -8 -5 -14 -11 -14 -14 0 -69 55 -69 70 0 14 78 50 110 50 14 -1 43
-9 65 -19z m87 -68 c19 -20 27 -41 30 -75 4 -56 6 -56 -109 -1 -92 43 -95 68
-13 91 54 16 64 14 92 -15z m-781 -752 c12 -30 -9 -91 -43 -124 l-30 -30 -46
46 -46 46 19 40 c9 22 26 49 36 60 19 20 19 20 61 1 23 -10 45 -28 49 -39z"/>
<path d="M10960 3724 c0 -4 6 -15 14 -23 7 -9 18 -29 23 -46 5 -16 14 -29 19
-27 10 3 6 39 -7 64 -10 19 -49 44 -49 32z"/>
<path d="M10765 3690 c3 -5 21 -10 38 -10 34 0 112 -21 148 -40 35 -19 19 11
-21 38 -26 17 -47 22 -102 22 -44 0 -67 -4 -63 -10z"/>
<path d="M7702 3075 c0 -16 2 -22 5 -12 2 9 2 23 0 30 -3 6 -5 -1 -5 -18z"/>
<path d="M10691 1354 c0 -11 3 -14 6 -6 3 7 2 16 -1 19 -3 4 -6 -2 -5 -13z"/>
<path d="M10552 3350 c15 -4 39 -18 54 -29 l27 -21 -32 0 c-34 0 -52 -23 -32
-43 8 -8 11 -7 11 6 0 13 9 17 34 17 49 0 51 13 11 49 -25 22 -45 31 -68 30
l-32 -1 27 -8z"/>
<path d="M11020 3183 c-30 -15 -49 -28 -43 -30 12 -4 113 43 113 52 0 10 -17
4 -70 -22z"/>
<path d="M11860 2069 c-28 -19 -52 -27 -65 -23 -16 4 -17 3 -5 -5 24 -17 65
-13 93 9 14 11 31 20 39 20 7 1 27 7 43 14 l30 13 -45 0 c-33 0 -57 -7 -90
-28z"/>
<path d="M1266 4096 c-30 -30 -78 -67 -108 -82 -110 -55 -170 -120 -163 -176
5 -34 11 -45 22 -34 4 3 1 12 -5 18 -15 15 -15 25 1 31 9 3 12 -10 13 -49 0
-33 -4 -51 -11 -48 -5 3 1 -4 14 -16 46 -40 115 -2 191 106 27 40 72 91 100
114 75 63 100 128 66 173 -25 32 -62 21 -120 -37z"/>
<path d="M981 3810 c0 -8 4 -24 9 -35 l9 -20 0 20 c0 11 -4 27 -9 35 -9 13
-10 13 -9 0z"/>
<path d="M268 3673 c6 -2 18 -2 25 0 6 3 1 5 -13 5 -14 0 -19 -2 -12 -5z"/>
<path d="M378 3653 c7 -3 16 -2 19 1 4 3 -2 6 -13 5 -11 0 -14 -3 -6 -6z"/>
<path d="M470 3642 c0 -5 14 -12 30 -14 33 -5 28 6 -7 17 -13 3 -23 2 -23 -3z"/>
<path d="M575 3620 c-7 -12 18 -24 37 -18 8 3 5 9 -9 16 -14 8 -24 9 -28 2z"/>
<path d="M670 3593 c8 -3 17 -9 20 -13 6 -9 26 -13 55 -11 18 2 18 3 -5 16
-14 8 -38 14 -55 14 -16 0 -23 -3 -15 -6z"/>
<path d="M781 3559 c7 -4 17 -5 21 -3 4 3 8 0 8 -5 0 -6 12 -11 27 -11 26 0
27 1 8 14 -11 7 -33 14 -49 14 -18 0 -24 -3 -15 -9z"/>
<path d="M903 3530 c21 -11 42 -18 47 -15 15 9 3 24 -18 23 -9 -1 -28 2 -42 6
-16 4 -11 -1 13 -14z"/>
<path d="M970 3516 c0 -2 9 -6 20 -9 11 -3 20 -1 20 4 0 5 -9 9 -20 9 -11 0
-20 -2 -20 -4z"/>
<path d="M1026 3512 c-9 -15 9 -28 54 -39 132 -31 267 -72 479 -142 130 -43
283 -93 341 -111 58 -17 134 -41 170 -52 102 -33 97 -32 80 -19 -15 11 -175
74 -320 126 -41 15 -109 40 -150 55 -135 50 -302 101 -465 141 -88 22 -165 42
-172 44 -7 2 -14 1 -17 -3z"/>
<path d="M671 3316 c3 -3 50 -15 105 -26 307 -63 1132 -261 1529 -366 16 -4
17 -3 5 5 -28 19 -289 101 -595 187 -68 18 -378 93 -440 105 -54 11 -130 24
-380 64 -88 14 -176 28 -195 31 -19 3 -32 3 -29 0z"/>
<path d="M1420 3016 c0 -7 375 -127 610 -195 113 -33 281 -82 375 -110 93 -27
171 -48 172 -47 3 2 -182 84 -242 107 -206 79 -384 131 -645 189 -52 12 -132
30 -177 41 -88 20 -93 21 -93 15z"/>
<path d="M8138 1973 c7 -3 16 -2 19 1 4 3 -2 6 -13 5 -11 0 -14 -3 -6 -6z"/>
<path d="M8188 1963 c7 -3 16 -2 19 1 4 3 -2 6 -13 5 -11 0 -14 -3 -6 -6z"/>
<path d="M8221 1956 c3 -3 108 -32 234 -65 127 -33 367 -101 535 -152 168 -50
350 -104 405 -120 113 -34 505 -164 609 -203 86 -33 98 -32 26 0 -251 115
-554 217 -1110 374 -220 63 -191 55 -464 119 -212 49 -244 56 -235 47z"/>
<path d="M8438 1793 c7 -3 16 -2 19 1 4 3 -2 6 -13 5 -11 0 -14 -3 -6 -6z"/>
<path d="M8505 1780 c11 -5 29 -8 40 -8 16 0 15 2 -5 8 -34 11 -60 11 -35 0z"/>
<path d="M8571 1766 c2 -2 69 -20 149 -40 301 -75 524 -140 915 -265 121 -38
263 -82 315 -96 52 -14 158 -46 234 -71 76 -24 141 -43 143 -41 4 5 -193 78
-352 129 -236 77 -371 120 -415 133 -25 7 -106 31 -180 53 -257 75 -359 103
-497 137 -212 52 -326 74 -312 61z"/>
<path d="M8910 1570 c8 -5 24 -10 34 -10 26 0 18 6 -19 14 -22 5 -26 4 -15 -4z"/>
<path d="M9015 1543 c28 -8 131 -37 230 -64 164 -46 262 -74 505 -146 148 -44
708 -228 845 -278 16 -5 17 -5 5 4 -54 40 -626 235 -980 336 -52 15 -126 36
-165 47 -137 39 -457 118 -473 117 -9 -1 6 -8 33 -16z"/>
<path d="M10350 1240 c8 -5 20 -10 25 -10 6 0 3 5 -5 10 -8 5 -19 10 -25 10
-5 0 -3 -5 5 -10z"/>
</g>
</svg>
